<?xml version="1.0" standalone="no"?>
<!DOCTYPE svg PUBLIC "-//W3C//DTD SVG 20010904//EN"
 "http://www.w3.org/TR/2001/REC-SVG-20010904/DTD/svg10.dtd">
<svg version="1.0" xmlns="http://www.w3.org/2000/svg"
 width="700.000000pt" height="700.000000pt" viewBox="0 0 700.000000 700.000000"
 preserveAspectRatio="xMidYMid meet">
<metadata>
Created by potrace 1.11, written by Peter Selinger 2001-2013
</metadata>
<g transform="translate(0.000000,700.000000) scale(0.100000,-0.100000)"
fill="#000000" stroke="none">
<path d="M0 3500 l0 -3500 3500 0 3500 0 0 3500 0 3500 -3500 0 -3500 0 0
-3500z m2376 1525 c285 -43 549 -167 745 -352 123 -116 243 -292 305 -447 29
-69 31 -82 18 -89 -21 -12 -407 -167 -415 -167 -3 0 -19 30 -34 68 -116 276
-310 473 -548 552 -124 42 -216 53 -379 47 -172 -6 -260 -27 -403 -97 -309
-150 -505 -427 -570 -805 -23 -133 -23 -383 0 -525 62 -385 270 -687 560 -815
129 -58 220 -77 385 -82 179 -6 262 4 397 49 301 99 528 359 569 651 l6 47
-516 0 -516 0 0 200 0 200 735 0 735 0 0 -745 0 -745 -205 0 -205 0 0 53 c0
135 52 332 144 550 l16 37 -97 0 -98 0 -48 -100 c-220 -456 -678 -668 -1240
-574 -509 85 -894 465 -1037 1021 -46 180 -54 259 -55 503 0 260 14 364 76
552 119 366 387 690 708 856 160 83 353 145 516 165 85 11 357 6 451 -8z
m3954 -240 l0 -195 -875 0 -875 0 0 -480 0 -480 690 0 690 0 -2 -192 -3 -193
-687 -3 -688 -2 0 -635 0 -635 -210 0 -210 0 0 1505 0 1505 1085 0 1085 0 0
-195z"/>
</g>
</svg>
