<svg xmlns="http://www.w3.org/2000/svg" width="58" height="58" viewBox="0 0 58 58">
    <g fill="none" fill-rule="evenodd">
        <path fill="#D63A00" fill-rule="nonzero" d="M43 10v3a2 2 0 1 1-4 0v-3H19v3a2 2 0 1 1-4 0v-3H9a5 5 0 0 0-5 5v5.756h50V15a5 5 0 0 0-5-5h-6zm0-4h6a9 9 0 0 1 9 9v32a9 9 0 0 1-9 9H9a9 9 0 0 1-9-9V15a9 9 0 0 1 9-9h6V4a2 2 0 1 1 4 0v2h20V4a2 2 0 1 1 4 0v2zM4 23.756V47a5 5 0 0 0 5 5h40a5 5 0 0 0 5-5V23.756H4zm31.515 6.917a2.014 2.014 0 0 1 2.798-.2c.83.7.92 1.927.204 2.739l-8.925 10.115a2.013 2.013 0 0 1-2.912.096l-5.107-5.058a1.913 1.913 0 0 1 .016-2.746 2.014 2.014 0 0 1 2.806.016l3.598 3.563 7.522-8.525z"/>
        <path fill="#F3591D" fill-opacity=".15" d="M9 8h40a7 7 0 0 1 7 7v7H2v-7a7 7 0 0 1 7-7z"/>
    </g>
</svg>
