<?xml version="1.0" encoding="utf-8"?>
<!-- Generator: Adobe Illustrator 23.0.4, SVG Export Plug-In . SVG Version: 6.00 Build 0)  -->
<svg version="1.1" id="Layer_1" xmlns="http://www.w3.org/2000/svg" xmlns:xlink="http://www.w3.org/1999/xlink" x="0px" y="0px"
	 viewBox="0 0 691.3 103" style="enable-background:new 0 0 691.3 103;" xml:space="preserve">
<style type="text/css">
	.st0{fill:#FFFFFF;}
</style>
<g id="Laag_2">
	<g id="Laag_1-2">
		<path class="st0" d="M0,65.8c0-22.1,11.8-37.1,28.8-37.1c14.4,0,20.2,9.4,23.2,16.5h8.4c-3.5-5.5-7.4-12-7.4-28.7V2.8h19.9v98
			H54.9c0-4.9,3.2-10.2,6-14.3h-8.4c-3.5,7-8.8,16.5-23.7,16.5C11.8,103,0,87.9,0,65.8z M53.9,65.8c0-14.8-6.7-22.1-16.7-22.1
			c-9.2,0-16.4,5.7-16.4,22.1S28,87.9,37.2,87.9C47,87.9,53.9,80.6,53.9,65.8z"/>
		<path class="st0" d="M87.6,65.7c0-22,15.1-37,35.4-37c23.5,0,35.8,18.5,33.9,41.9h-49.4c0.6,12.3,7.1,17.4,15.7,17.4
			c9,0,13.3-5.6,16.2-12.2l17.8,6.9c-3.9,9-12.7,20.4-34,20.4C101.6,103,87.6,88.6,87.6,65.7z M137.3,56.6
			c-0.8-8.7-5.9-13.6-14.3-13.6c-8,0-13.4,4.8-14.8,13.6L137.3,56.6z M123.9,0h21.7l-15.4,21.6h-13.3L123.9,0z"/>
		<path class="st0" d="M167.3,65.7c0-22.5,16.5-37,37.7-37c16.8,0,28.7,9.1,33.3,21l-18.3,6.9c-2.8-8-8.4-12.2-15.7-12.2
			c-9.4,0-16.9,6.9-16.9,21.3s7.8,21.6,17.1,21.6c8.1,0,13.2-4.3,16.2-13.3l18.8,6.7C234.1,94,221.3,103,204.8,103
			C183.3,103,167.3,88.2,167.3,65.7z"/>
		<path class="st0" d="M247.1,65.8c0-22.4,15.4-37.1,36.8-37.1s36.8,14.7,36.8,37.1c0,22.8-15.4,37.2-36.8,37.2
			S247.1,87.4,247.1,65.8z M300,66.1c0-14.4-6.6-21.7-16.1-21.7s-16.1,7.3-16.1,21.7s6.6,21.1,16.1,21.1S300,80.5,300,66.1L300,66.1
			z"/>
		<path class="st0" d="M334.5,78V30.8h19.9v42.6c0,9.4,4.1,13.2,10.5,13.2c10.2,0,14-9.5,14-21.1V30.8h19.9v70h-18.5
			c0.1-4.8,2.9-10.6,6.7-16.1h-8.5c-3.4,9.9-10.5,18.3-22.1,18.3C343,103,334.5,93.2,334.5,78z"/>
		<path class="st0" d="M409.5,30.8h20.9l9.6,28.7c3.8,11.3,4.3,16.8,4.6,29.3h7.4c0.3-12.5,0.6-18.6,4.1-29.3l9.2-28.7h20.3
			l-25.5,70h-23.8L409.5,30.8z"/>
		<path class="st0" d="M497.1,30.8H515c-0.2,7.5-2.3,14.8-6,21.3h8.4c3.1-14.4,8.8-22.7,23.7-22.7c1.4,0,2.8,0,4.2,0.1V50
			c-2.8-0.3-5.3-0.4-7.7-0.4c-14.3,0-20.6,5.4-20.6,24.3v26.9h-19.9V30.8z"/>
		<path class="st0" d="M551.3,65.7c0-22,15.1-37,35.4-37c23.5,0,35.8,18.5,33.9,41.9h-49.4c0.6,12.3,7.1,17.4,15.7,17.4
			c9,0,13.3-5.6,16.2-12.2l17.8,6.9c-3.9,9-12.7,20.4-34,20.4C565.3,103,551.3,88.6,551.3,65.7z M601,56.6
			c-0.8-8.7-5.9-13.6-14.3-13.6c-8,0-13.4,4.8-14.8,13.6L601,56.6z"/>
		<path class="st0" d="M631.5,81.2l39.3-37.9l-5-5.3c-3.8,3.8-9,8.7-19.2,8.7h-13.5V30.8h56.3v17.1l-41.9,40.5l5,5.2
			c2.7-2.4,9.7-8.5,20.4-8.5h18.3v15.8h-59.8V81.2z"/>
	</g>
</g>
</svg>
