<?xml version="1.0" encoding="utf-8"?>
<!-- Generator: Adobe Illustrator 23.0.4, SVG Export Plug-In . SVG Version: 6.00 Build 0)  -->
<svg version="1.1" id="Layer_1" xmlns="http://www.w3.org/2000/svg" xmlns:xlink="http://www.w3.org/1999/xlink" x="0px" y="0px"
	 viewBox="0 0 572.2 100.5" style="enable-background:new 0 0 572.2 100.5;" xml:space="preserve">
<style type="text/css">
	.st0{fill:#FFFFFF;}
</style>
<g id="Laag_2">
	<g id="Laag_1-2">
		<path class="st0" d="M0,63.3c0-22.1,11.8-37.1,28.8-37.1c14.4,0,20.2,9.4,23.2,16.5h8.4c-3.5-5.5-7.4-12-7.4-28.7V0.3h19.9v98
			H54.9c0-4.9,3.2-10.2,6-14.3h-8.4c-3.5,7-8.8,16.5-23.7,16.5C11.8,100.5,0,85.4,0,63.3z M53.9,63.3c0-14.8-6.7-22.1-16.7-22.1
			c-9.2,0-16.4,5.7-16.4,22.1S28,85.4,37.2,85.4C47,85.4,53.9,78.1,53.9,63.3z"/>
		<path class="st0" d="M91.4,0h21.1v18.8H91.4V0z M92.1,28.3H112v70H92.1L92.1,28.3z"/>
		<path class="st0" d="M125.2,80.2l18.1-5.7c0.3,1.5,2.4,11.8,16,11.8c7,0,10.6-3.1,10.6-7c0-3.2-1.5-6-8.7-7.4l-9.9-2
			C136.5,66.9,128,62,128,48.3c0-13.3,11.3-22.1,30.1-22.1c17.5,0,26.5,9.1,29.5,16.1l-16.4,7.4c-2.1-6-7.8-10-14.1-9.8
			c-6.7,0-9.9,2.9-9.9,6.7s2.1,5.5,9.7,6.9l9.7,1.8c13.2,2.5,24.1,8.5,24.1,21.8c0,14-12,23.1-32.5,23.1
			C141.5,100.2,128.1,92.5,125.2,80.2z"/>
		<path class="st0" d="M199.8,63.1c0-22.5,16.5-37,37.7-37c16.8,0,28.7,9.1,33.3,21L252.4,54c-2.8-8-8.4-12.2-15.7-12.2
			c-9.4,0-16.9,6.9-16.9,21.3s7.8,21.6,17.1,21.6c8.1,0,13.2-4.3,16.2-13.3l18.8,6.7c-5.3,13.4-18.1,22.4-34.6,22.4
			C215.7,100.5,199.8,85.7,199.8,63.1z"/>
		<path class="st0" d="M279.6,63.3c0-22.4,15.4-37.1,36.8-37.1s36.8,14.7,36.8,37.1c0,22.8-15.4,37.2-36.8,37.2
			S279.6,84.8,279.6,63.3z M332.5,63.6c0-14.4-6.6-21.7-16.1-21.7s-16.1,7.3-16.1,21.7s6.6,21.1,16.1,21.1S332.5,78,332.5,63.6z"/>
		<path class="st0" d="M358,28.3h20.9l9.6,28.7c3.8,11.3,4.3,16.8,4.6,29.3h7.4c0.3-12.5,0.6-18.6,4.1-29.3l9.2-28.7h20.3l-25.5,70
			h-23.8L358,28.3z"/>
		<path class="st0" d="M439.6,63.1c0-22,15.1-37,35.4-37c23.5,0,35.8,18.5,33.9,41.9h-49.4c0.6,12.3,7.1,17.4,15.7,17.4
			c9,0,13.3-5.6,16.2-12.2l17.8,6.9c-3.9,9-12.7,20.4-34,20.4C453.6,100.5,439.6,86.1,439.6,63.1z M489.3,54
			c-0.8-8.7-5.9-13.6-14.3-13.6c-8,0-13.4,4.8-14.8,13.6H489.3z"/>
		<path class="st0" d="M524,28.3h17.9c-0.2,7.5-2.3,14.8-6,21.3h8.4c3.1-14.4,8.8-22.7,23.7-22.7c1.4,0,2.8,0,4.2,0.1v20.4
			c-2.6-0.3-5.1-0.4-7.7-0.4c-14.3,0-20.6,5.5-20.6,24.4v26.9H524V28.3z"/>
	</g>
</g>
</svg>
