<?xml version="1.0" encoding="utf-8"?>
<!-- Generator: Adobe Illustrator 24.2.1, SVG Export Plug-In . SVG Version: 6.00 Build 0)  -->
<svg version="1.1" id="Laag_1" xmlns="http://www.w3.org/2000/svg" xmlns:xlink="http://www.w3.org/1999/xlink" x="0px" y="0px"
	 viewBox="0 0 497.19 183.002" style="enable-background:new 0 0 497.19 183.002;" xml:space="preserve">
<style type="text/css">
	.st0{fill:#E20613;}
</style>
<g>
	<g>
		<g>
			<g>
				<path d="M172.39,170.762l-7.05,4.54v-2.96l8.31-4.37h1.72v14.7h-2.98V170.762z"/>
				<path d="M189.6,170.462h-12.39v-2.5h16.52v1.24l-10.02,13.46h-3.86L189.6,170.462z"/>
				<path d="M205.65,176.302v1.36h-5.19v-1.36H205.65z"/>
				<path d="M211.24,180.922c0.19-5.61,12.53-5.54,12.53-8.48c0-1.64-1.45-2.27-5.19-2.27c-2.92,0-5.73,0.73-6.91,1.3v-2.62
					c1.55-0.71,4.45-1.2,7.47-1.2c5.06,0,7.73,1.2,7.73,4.22c0,5.92-11.21,5.27-12.53,8.27h12.22v2.52h-15.33v-1.74L211.24,180.922
					L211.24,180.922z"/>
				<path d="M228.41,175.062c0-4.72,3.51-7.41,9.22-7.41c2.58,0,4.37,0.44,5.94,1.22v2.77c-1.74-0.97-3.61-1.47-6.17-1.47
					c-3.76,0-6,1.78-6,5.06c2.1-1.76,4.83-2.23,6.61-2.23c4.64,0,6.7,2.14,6.7,5c0,2.96-2.79,4.91-7.68,4.91
					C231.88,182.912,228.41,180.422,228.41,175.062z M241.7,177.832c0-1.68-1.41-2.58-4.22-2.58c-1.95,0-4.6,0.84-5.77,2.16
					c0.57,1.85,2.44,2.98,5.12,2.98C239.81,180.392,241.7,179.472,241.7,177.832z"/>
				<path d="M252.56,175.552h3c0,3.51,1.32,4.93,4.2,4.93c2.86,0,4.2-1.43,4.2-4.93v-5.08h-9.45v-2.5h12.43v7.58
					c0,5.46-2.88,7.45-7.18,7.45C255.44,183.002,252.56,181.002,252.56,175.552z"/>
				<path d="M270.12,174.852v-6.89h2.98v7.52c0,3.36,1.49,4.96,4.72,4.96c3.21,0,4.72-1.6,4.72-4.96v-7.52h2.98v6.89
					c0,6.26-2.9,8.15-7.71,8.15C273.02,183.002,270.12,181.112,270.12,174.852z"/>
				<path d="M288.18,167.972h2.98v14.7h-2.98V167.972z"/>
				<path d="M294.16,167.972h2.98v12.18h10.25v2.52h-13.23V167.972z"/>
				<path d="M308.68,167.972h2.98v12.18h10.25v2.52h-13.23V167.972z"/>
				<path d="M323.19,167.972h14.17v2.5h-11.19v3.21h9.95v2.31h-9.95v4.16h11.19v2.52h-14.17V167.972z"/>
				<path d="M344.88,170.462h-6.51v-2.5h16.02v2.5h-6.53v12.2h-2.98L344.88,170.462L344.88,170.462z"/>
				<path d="M361.07,180.922c0.19-5.61,12.53-5.54,12.53-8.48c0-1.64-1.45-2.27-5.19-2.27c-2.92,0-5.73,0.73-6.91,1.3v-2.62
					c1.55-0.71,4.45-1.2,7.47-1.2c5.06,0,7.73,1.2,7.73,4.22c0,5.92-11.21,5.27-12.53,8.27h12.22v2.52h-15.33v-1.74L361.07,180.922
					L361.07,180.922z"/>
				<path d="M377.83,175.312c0-4.62,3.55-7.68,9.28-7.68c5.75,0,9.3,3.07,9.3,7.68s-3.55,7.68-9.3,7.68
					C381.38,183.002,377.83,179.932,377.83,175.312z M393.43,175.312c0-3.25-2.48-5.19-6.32-5.19c-3.82,0-6.3,1.93-6.3,5.19
					c0,3.25,2.48,5.17,6.3,5.17C390.95,180.482,393.43,178.572,393.43,175.312z"/>
				<path d="M397.09,180.922c0.19-5.61,12.53-5.54,12.53-8.48c0-1.64-1.45-2.27-5.19-2.27c-2.92,0-5.73,0.73-6.91,1.3v-2.62
					c1.55-0.71,4.45-1.2,7.47-1.2c5.06,0,7.73,1.2,7.73,4.22c0,5.92-11.21,5.27-12.53,8.27h12.22v2.52h-15.32V180.922z"/>
				<path d="M413.84,175.312c0-4.62,3.55-7.68,9.28-7.68c5.75,0,9.3,3.07,9.3,7.68s-3.55,7.68-9.3,7.68
					C417.39,183.002,413.84,179.932,413.84,175.312z M429.44,175.312c0-3.25-2.48-5.19-6.32-5.19c-3.82,0-6.3,1.93-6.3,5.19
					c0,3.25,2.48,5.17,6.3,5.17C426.97,180.482,429.44,178.572,429.44,175.312z"/>
			</g>
			<g>
				<g>
					<path d="M78.21,1.772c17.5,0,29.23,7.85,29.74,19.59h-10.3c-0.58-6.91-7.7-11.02-19.3-11.02c-12.17,0-20.31,6.84-20.31,17.79
						s8.06,17.71,20.16,17.71c10.94,0,19.3-4.46,20.52-11.95H70.64v-7.49h38.09v26.93h-8.35l0.72-11.67h-0.65
						c-4.61,9.43-13.32,12.82-22.47,12.82c-18.15,0-30.17-10.51-30.17-26.35S59.93,1.772,78.21,1.772z"/>
					<path d="M119.4,2.922H168v8.57h-38.38v11.02h34.13v7.92h-34.13v14.26H168v8.64h-48.6V2.922L119.4,2.922z"/>
					<path d="M178.58,2.922h9.29l37.73,36.29V2.922h10.23v50.4h-9.36l-37.66-36.29v36.29h-10.23L178.58,2.922L178.58,2.922z"/>
					<path d="M264.84,11.492h-22.32v-8.57h54.94v8.57h-22.39v41.84h-10.22v-41.84C264.85,11.492,264.84,11.492,264.84,11.492z"/>
					<path d="M300.04,37.132h10.66c-0.07,5.26,6.34,8.71,16.85,8.71c11.88,0,18.43-2.16,18.43-6.91c0-13.61-44.57,2.16-44.57-21.24
						c0-10.3,10.87-15.91,26.5-15.91c16.42,0,27.22,6.91,27.29,17.35h-10.44c0-5.33-6.34-8.78-16.56-8.78
						c-10.44,0-16.42,2.16-16.42,6.48c0,12.67,44.5-2.02,44.5,21.67c0,10.51-11.16,15.99-28.3,15.99
						C310.77,54.482,299.9,47.422,300.04,37.132z"/>
					<path d="M365.2,2.922h48.6v8.57h-38.38v11.02h34.13v7.92h-34.13v14.26h38.38v8.64h-48.6V2.922L365.2,2.922z"/>
					<path d="M30.48,69.922h46.23v8.57h-36v11.38h32.47v7.92H40.71v22.54H30.48V69.922z"/>
					<path d="M85.05,69.922h48.6v8.57H95.27v11.02h34.13v7.92H95.27v14.26h38.38v8.64h-48.6L85.05,69.922L85.05,69.922z"/>
					<path d="M143.52,69.922h48.6v8.57h-38.38v11.02h34.13v7.92h-34.13v14.26h38.38v8.64h-48.6L143.52,69.922L143.52,69.922z"/>
					<path d="M199.17,104.132h10.66c-0.07,5.26,6.34,8.71,16.85,8.71c11.88,0,18.43-2.16,18.43-6.91c0-13.61-44.57,2.16-44.57-21.24
						c0-10.3,10.87-15.91,26.5-15.91c16.42,0,27.22,6.91,27.29,17.35h-10.44c0-5.33-6.34-8.78-16.56-8.78
						c-10.44,0-16.42,2.16-16.42,6.48c0,12.67,44.5-2.02,44.5,21.67c0,10.51-11.16,15.99-28.3,15.99
						C209.9,121.482,199.03,114.422,199.17,104.132z"/>
					<path d="M278.59,78.492h-22.32v-8.57h54.94v8.57h-22.39v41.84h-10.23V78.492z"/>
					<path d="M317.11,69.922h48.6v8.57h-38.38v11.02h34.13v7.92h-34.13v14.26h38.38v8.64h-48.6V69.922z"/>
					<path d="M375.57,69.922h9.29l37.73,36.29v-36.29h10.23v50.4h-9.36l-37.66-36.29v36.29h-10.23L375.57,69.922L375.57,69.922z"/>
				</g>
			</g>
		</g>
		<g>
			<path class="st0" d="M112.32,150.212c0-2.8,2.96-3.62,6.28-3.94v-0.38c0-0.86-0.5-1.38-1.64-1.38c-1.3,0-1.96,0.64-2.2,1.58
				l-2.56-0.56c0.16-1.56,1.82-3.06,4.74-3.06c2.8,0,4.46,1.24,4.46,3.88v3.66c0,0.5,0.06,0.6,0.6,0.6h0.88v2.16h-2.18
				c-1.12,0-1.7-0.56-1.8-1.46c-0.54,0.84-1.66,1.78-3.42,1.78C113.68,153.092,112.32,151.972,112.32,150.212z M118.6,148.672v-0.64
				c-1.84,0.22-3.4,0.58-3.4,1.9c0,0.66,0.44,1.08,1.3,1.08C117.6,151.012,118.6,150.292,118.6,148.672z"/>
			<path class="st0" d="M124.38,138.772h2.84v14h-2.84V138.772z"/>
			<path class="st0" d="M131,150.152v-5.22h-2.1v-2.16h2.1v-3.14h2.84v3.14h2.6v2.16h-2.6v4.7c0,0.6,0.26,0.88,0.88,0.88h2.16v2.26
				h-3.34C131.92,152.772,131,151.712,131,150.152z"/>
			<path class="st0" d="M137.9,147.752c0-3.14,2.16-5.28,5.06-5.28c3.36,0,5.12,2.64,4.84,5.98h-7.06c0.08,1.76,1.02,2.48,2.24,2.48
				c1.28,0,1.9-0.8,2.32-1.74l2.54,0.98c-0.56,1.28-1.82,2.92-4.86,2.92C139.9,153.092,137.9,151.032,137.9,147.752z M145,146.452
				c-0.12-1.24-0.84-1.94-2.04-1.94c-1.14,0-1.92,0.68-2.12,1.94H145z"/>
			<path class="st0" d="M149.96,142.772h2.78v2.28c0.34-0.82,1.22-2.48,3.64-2.48c0.16,0,0.3,0,0.46,0.02v2.92
				c-0.4-0.04-0.76-0.06-1.1-0.06c-2.04,0-2.94,0.8-2.94,3.3v4.02h-2.84V142.772z"/>
			<path class="st0" d="M158.56,142.772h2.76v1.54c0.42-0.68,1.38-1.84,3.22-1.84c2.32,0,3.3,1.42,3.3,3.6v6.7H165v-6.08
				c0-1.32-0.62-1.88-1.6-1.88c-1.98,0-2,2.16-2,3.22v4.74h-2.84V142.772z"/>
			<path class="st0" d="M169.92,150.212c0-2.8,2.96-3.62,6.28-3.94v-0.38c0-0.86-0.5-1.38-1.64-1.38c-1.3,0-1.96,0.64-2.2,1.58
				l-2.56-0.56c0.16-1.56,1.82-3.06,4.74-3.06c2.8,0,4.46,1.24,4.46,3.88v3.66c0,0.5,0.06,0.6,0.6,0.6h0.88v2.16h-2.18
				c-1.12,0-1.7-0.56-1.8-1.46c-0.54,0.84-1.66,1.78-3.42,1.78C171.28,153.092,169.92,151.972,169.92,150.212z M176.2,148.672v-0.64
				c-1.84,0.22-3.4,0.58-3.4,1.9c0,0.66,0.44,1.08,1.3,1.08C175.2,151.012,176.2,150.292,176.2,148.672z"/>
			<path class="st0" d="M182.84,150.152v-5.22h-2.1v-2.16h2.1v-3.14h2.84v3.14h2.6v2.16h-2.6v4.7c0,0.6,0.26,0.88,0.88,0.88h2.16
				v2.26h-3.34C183.76,152.772,182.84,151.712,182.84,150.152z"/>
			<path class="st0" d="M190.42,138.732h3.02v2.68h-3.02V138.732z M190.52,142.772h2.84v10h-2.84V142.772z"/>
			<path class="st0" d="M194.86,142.772h2.98l1.38,4.1l1.18,3.48c0.16-0.48,0.44-1.34,1.12-3.48l1.32-4.1h2.9l-3.64,10h-3.4
				L194.86,142.772z"/>
			<path class="st0" d="M206.52,147.752c0-3.14,2.16-5.28,5.06-5.28c3.36,0,5.12,2.64,4.84,5.98h-7.06
				c0.08,1.76,1.02,2.48,2.24,2.48c1.28,0,1.9-0.8,2.32-1.74l2.54,0.98c-0.56,1.28-1.82,2.92-4.86,2.92
				C208.52,153.092,206.52,151.032,206.52,147.752z M213.62,146.452c-0.12-1.24-0.84-1.94-2.04-1.94c-1.14,0-1.92,0.68-2.12,1.94
				H213.62z"/>
			<path class="st0" d="M223.28,142.772h2.76v1.54c0.42-0.68,1.38-1.84,3.22-1.84c2.32,0,3.3,1.42,3.3,3.6v6.7h-2.84v-6.08
				c0-1.32-0.62-1.88-1.6-1.88c-1.98,0-2,2.16-2,3.22v4.74h-2.84V142.772z"/>
			<path class="st0" d="M235.1,149.512v-6.74h2.84v6.08c0,1.34,0.58,1.88,1.5,1.88c1.46,0,2-1.38,2-3.02v-4.94h2.84v10h-2.84v-1.6
				c-0.44,0.74-1.34,1.92-3.26,1.92C236.28,153.092,235.1,151.692,235.1,149.512z"/>
			<path class="st0" d="M247.04,142.772h2.76v1.44c0.66-1.2,1.76-1.74,3-1.74c1.34,0,2.28,0.72,2.86,1.74
				c0.92-1.3,2.06-1.74,3.36-1.74c1.86,0,3.3,1,3.3,3.62v6.68h-2.84v-6.08c0-1.34-0.62-1.88-1.56-1.88c-1.8,0-1.84,1.86-1.84,2.86
				v5.1h-2.8v-6.08c0-1.34-0.62-1.88-1.56-1.88c-1.8,0-1.84,1.86-1.84,2.86v5.1h-2.84V142.772z"/>
			<path class="st0" d="M264.32,147.752c0-3.14,2.16-5.28,5.06-5.28c3.36,0,5.12,2.64,4.84,5.98h-7.06
				c0.08,1.76,1.02,2.48,2.24,2.48c1.28,0,1.9-0.8,2.32-1.74l2.54,0.98c-0.56,1.28-1.82,2.92-4.86,2.92
				C266.32,153.092,264.32,151.032,264.32,147.752z M271.42,146.452c-0.12-1.24-0.84-1.94-2.04-1.94c-1.14,0-1.92,0.68-2.12,1.94
				H271.42z M269.5,138.372h3.1l-2.2,3.08h-1.9L269.5,138.372z"/>
			<path class="st0" d="M276.38,142.772h2.78v2.28c0.34-0.82,1.22-2.48,3.64-2.48c0.16,0,0.3,0,0.46,0.02v2.92
				c-0.4-0.04-0.76-0.06-1.1-0.06c-2.04,0-2.94,0.8-2.94,3.3v4.02h-2.84V142.772z"/>
			<path class="st0" d="M284.86,138.732h3.02v2.68h-3.02V138.732z M284.96,142.772h2.84v10h-2.84V142.772z"/>
			<path class="st0" d="M297.46,153.172v-1.74c-0.44,0.68-1.56,1.66-3.24,1.66c-2.66,0-4.34-2.16-4.34-5.32s1.68-5.32,4.34-5.32
				c1.72,0,2.84,0.96,3.32,1.66v-1.34h2.76v13.9h-2.84L297.46,153.172L297.46,153.172z M297.68,147.772c0-2.12-1.06-3.18-2.46-3.18
				c-1.32,0-2.36,0.84-2.36,3.18s1.04,3.16,2.36,3.16C296.62,150.932,297.68,149.892,297.68,147.772z"/>
			<path class="st0" d="M302.94,149.512v-6.74h2.84v6.08c0,1.34,0.58,1.88,1.5,1.88c1.46,0,2-1.38,2-3.02v-4.94h2.84v10h-2.84v-1.6
				c-0.44,0.74-1.34,1.92-3.26,1.92C304.12,153.092,302.94,151.692,302.94,149.512z"/>
			<path class="st0" d="M314.22,147.752c0-3.14,2.16-5.28,5.06-5.28c3.36,0,5.12,2.64,4.84,5.98h-7.06
				c0.08,1.76,1.02,2.48,2.24,2.48c1.28,0,1.9-0.8,2.32-1.74l2.54,0.98c-0.56,1.28-1.82,2.92-4.86,2.92
				C316.22,153.092,314.22,151.032,314.22,147.752z M321.32,146.452c-0.12-1.24-0.84-1.94-2.04-1.94c-1.14,0-1.92,0.68-2.12,1.94
				H321.32z"/>
			<path class="st0" d="M330.32,147.752c0-3.14,2.16-5.28,5.06-5.28c3.36,0,5.12,2.64,4.84,5.98h-7.06
				c0.08,1.76,1.02,2.48,2.24,2.48c1.28,0,1.9-0.8,2.32-1.74l2.54,0.98c-0.56,1.28-1.82,2.92-4.86,2.92
				C332.32,153.092,330.32,151.032,330.32,147.752z M337.42,146.452c-0.12-1.24-0.84-1.94-2.04-1.94c-1.14,0-1.92,0.68-2.12,1.94
				H337.42z"/>
			<path class="st0" d="M343.26,150.152v-5.22h-2.1v-2.16h2.1v-3.14h2.84v3.14h2.6v2.16h-2.6v4.7c0,0.6,0.26,0.88,0.88,0.88h2.16
				v2.26h-3.34C344.18,152.772,343.26,151.712,343.26,150.152z"/>
			<path class="st0" d="M354.98,147.752c0-3.22,2.36-5.28,5.38-5.28c2.4,0,4.1,1.3,4.76,3l-2.62,0.98c-0.4-1.14-1.2-1.74-2.24-1.74
				c-1.34,0-2.42,0.98-2.42,3.04s1.12,3.08,2.44,3.08c1.16,0,1.88-0.62,2.32-1.9l2.68,0.96c-0.76,1.92-2.58,3.2-4.94,3.2
				C357.26,153.092,354.98,150.972,354.98,147.752z"/>
			<path class="st0" d="M367.06,142.772h2.78v2.28c0.34-0.82,1.22-2.48,3.64-2.48c0.16,0,0.3,0,0.46,0.02v2.92
				c-0.4-0.04-0.76-0.06-1.1-0.06c-2.04,0-2.94,0.8-2.94,3.3v4.02h-2.84V142.772z"/>
			<path class="st0" d="M374.8,147.752c0-3.14,2.16-5.28,5.06-5.28c3.36,0,5.12,2.64,4.84,5.98h-7.06c0.08,1.76,1.02,2.48,2.24,2.48
				c1.28,0,1.9-0.8,2.32-1.74l2.54,0.98c-0.56,1.28-1.82,2.92-4.86,2.92C376.8,153.092,374.8,151.032,374.8,147.752z M381.9,146.452
				c-0.12-1.24-0.84-1.94-2.04-1.94c-1.14,0-1.92,0.68-2.12,1.94H381.9z M379.98,138.372h3.1l-2.2,3.08h-1.9L379.98,138.372z"/>
			<path class="st0" d="M386.28,150.212c0-2.8,2.96-3.62,6.28-3.94v-0.38c0-0.86-0.5-1.38-1.64-1.38c-1.3,0-1.96,0.64-2.2,1.58
				l-2.56-0.56c0.16-1.56,1.82-3.06,4.74-3.06c2.8,0,4.46,1.24,4.46,3.88v3.66c0,0.5,0.06,0.6,0.6,0.6h0.88v2.16h-2.18
				c-1.12,0-1.7-0.56-1.8-1.46c-0.54,0.84-1.66,1.78-3.42,1.78C387.64,153.092,386.28,151.972,386.28,150.212z M392.56,148.672
				v-0.64c-1.84,0.22-3.4,0.58-3.4,1.9c0,0.66,0.44,1.08,1.3,1.08C391.56,151.012,392.56,150.292,392.56,148.672z"/>
			<path class="st0" d="M399.2,150.152v-5.22h-2.1v-2.16h2.1v-3.14h2.84v3.14h2.6v2.16h-2.6v4.7c0,0.6,0.26,0.88,0.88,0.88h2.16
				v2.26h-3.34C400.12,152.772,399.2,151.712,399.2,150.152z"/>
			<path class="st0" d="M406.78,138.732h3.02v2.68h-3.02V138.732z M406.88,142.772h2.84v10h-2.84V142.772z"/>
			<path class="st0" d="M411.22,142.772h2.98l1.38,4.1l1.18,3.48c0.16-0.48,0.44-1.34,1.12-3.48l1.32-4.1h2.9l-3.64,10h-3.4
				L411.22,142.772z"/>
			<path class="st0" d="M422.88,147.752c0-3.14,2.16-5.28,5.06-5.28c3.36,0,5.12,2.64,4.84,5.98h-7.06
				c0.08,1.76,1.02,2.48,2.24,2.48c1.28,0,1.9-0.8,2.32-1.74l2.54,0.98c-0.56,1.28-1.82,2.92-4.86,2.92
				C424.88,153.092,422.88,151.032,422.88,147.752z M429.98,146.452c-0.12-1.24-0.84-1.94-2.04-1.94c-1.14,0-1.92,0.68-2.12,1.94
				H429.98z"/>
		</g>
	</g>
	<path d="M0.07,41.302c2.13-0.61,4.26-1.24,6.39-1.83c10.96-3.03,22.01-5.72,33.09-8.25c8.13-1.85,16.26-3.69,24.42-5.42
		c7.51-1.59,15.04-3.08,22.57-4.52c6.94-1.32,13.89-2.58,20.85-3.77c6.43-1.1,12.88-2.11,19.33-3.12
		c5.39-0.84,10.79-1.63,16.19-2.39c5.1-0.72,10.2-1.38,15.31-2.04c4.35-0.56,8.69-1.11,13.05-1.63c3.72-0.45,7.44-0.85,11.16-1.26
		c3.67-0.41,7.34-0.82,11.02-1.2c3.98-0.41,7.96-0.78,11.94-1.15c3.75-0.35,7.51-0.69,11.26-1c3.1-0.26,6.2-0.47,9.3-0.69
		c2.92-0.21,5.84-0.42,8.77-0.61c3.33-0.22,6.66-0.42,9.99-0.61c2.87-0.17,5.75-0.31,8.62-0.46c2.26-0.11,4.53-0.21,6.8-0.31
		c2.6-0.11,5.19-0.22,7.79-0.3c3.31-0.11,6.63-0.21,9.94-0.31c2.09-0.06,4.18-0.11,6.27-0.15c2.78-0.06,5.56-0.13,8.34-0.15
		c9.73-0.06,19.46-0.09,29.19-0.13c1.89-0.01,3.78,0.02,5.67,0.04c3.14,0.04,6.28,0.09,9.41,0.15c2.07,0.04,4.13,0.09,6.2,0.15
		c2.96,0.09,5.91,0.18,8.87,0.31c2.52,0.11,5.04,0.26,7.56,0.38c1.65,0.08,3.31,0.13,4.96,0.23c1.91,0.11,3.81,0.26,5.72,0.38
		c1.27,0.08,2.54,0.15,3.81,0.23c2.08,0.13,4.17,0.27,6.25,0.42c2.13,0.15,4.27,0.3,6.4,0.5c3.04,0.28,6.08,0.6,9.12,0.92
		c0.7,0.07,0.86,0.37,0.59,0.96c-0.13,0.29-0.32,0.33-0.61,0.3c-1.6-0.15-3.19-0.29-4.79-0.43c-1.75-0.15-3.5-0.31-5.25-0.45
		c-2.89-0.24-5.78-0.47-8.68-0.69c-2.03-0.15-4.07-0.26-6.1-0.39c-1.98-0.13-3.96-0.27-5.95-0.38c-1.65-0.09-3.31-0.16-4.96-0.23
		c-2.32-0.1-4.63-0.2-6.95-0.3c-0.84-0.04-1.68-0.07-2.52-0.09c-2.24-0.06-4.49-0.11-6.73-0.15c-3.47-0.07-6.94-0.18-10.41-0.21
		c-8.35-0.07-16.7-0.11-25.05-0.15c-1.86-0.01-3.73,0.03-5.59,0.06c-2.37,0.04-4.74,0.09-7.12,0.15c-3.39,0.09-6.78,0.19-10.17,0.31
		c-2.55,0.09-5.09,0.19-7.64,0.31c-2.42,0.11-4.83,0.26-7.25,0.38c-1.65,0.08-3.31,0.14-4.96,0.23c-1.4,0.07-2.8,0.16-4.2,0.25
		c-1.93,0.12-3.86,0.23-5.79,0.36c-1.93,0.13-3.86,0.27-5.79,0.41c-2.34,0.17-4.67,0.33-7.01,0.51c-2.28,0.18-4.57,0.37-6.85,0.56
		c-3.15,0.27-6.29,0.53-9.43,0.82c-3.45,0.32-6.89,0.66-10.34,1.03c-5.65,0.61-11.29,1.21-16.93,1.88
		c-4.53,0.53-9.05,1.13-13.57,1.75c-5.6,0.76-11.21,1.54-16.8,2.38c-4.61,0.69-9.22,1.43-13.81,2.21
		c-5.63,0.96-11.25,1.96-16.86,2.98c-3.14,0.57-6.26,1.2-9.39,1.8c-0.12,0.02-0.23,0.06-0.33,0.19c0.58-0.06,1.16-0.1,1.73-0.17
		c3.67-0.4,7.34-0.81,11.01-1.19c2.99-0.31,5.98-0.58,8.97-0.85c3.7-0.34,7.4-0.68,11.11-0.99c3.05-0.25,6.09-0.49,9.14-0.69
		c3.48-0.23,6.95-0.64,10.41-1.08c3.21-0.4,6.42-0.78,9.64-1.16c3.06-0.36,6.12-0.71,9.19-1.04c2.76-0.3,5.52-0.57,8.29-0.83
		c4.18-0.4,8.36-0.81,12.55-1.17c3.55-0.31,7.11-0.57,10.66-0.84c2.69-0.21,5.38-0.41,8.07-0.61c3.12-0.23,6.25-0.47,9.37-0.69
		c2.08-0.14,4.17-0.25,6.25-0.38c1.83-0.12,3.66-0.27,5.49-0.38c2.26-0.14,4.53-0.25,6.79-0.38c1.98-0.12,3.96-0.26,5.95-0.38
		c1.53-0.09,3.05-0.15,4.58-0.23c1.75-0.09,3.51-0.19,5.26-0.29c1.14-0.06,2.29-0.11,3.44-0.17c1.98-0.1,3.97-0.2,5.95-0.3
		c1.37-0.06,2.75-0.1,4.13-0.16c2.16-0.09,4.33-0.2,6.49-0.29c1.48-0.06,2.95-0.11,4.43-0.16c2.88-0.1,5.76-0.2,8.64-0.3
		c0.94-0.03,1.89-0.07,2.83-0.09c1.53-0.03,3.06-0.04,4.59-0.07c2.55-0.05,5.1-0.1,7.65-0.15c1.53-0.03,3.06-0.07,4.59-0.08
		c2.53-0.03,5.05-0.06,7.58-0.07c7.3-0.03,14.61-0.07,21.91-0.08c2.48,0,4.95,0.05,7.43,0.08c1.99,0.02,3.98,0.04,5.97,0.07
		c3.04,0.05,6.07,0.1,9.11,0.15c2.3,0.04,4.59,0.1,6.89,0.15c1.78,0.04,3.57,0.09,5.35,0.15c2.65,0.09,5.3,0.17,7.95,0.31
		c3.13,0.17,6.26,0.35,9.38,0.61c3.07,0.25,6.14,0.55,9.19,0.93c1.56,0.19,3.1,0.61,4.64,0.93c0.09,0.02,0.17,0.1,0.25,0.15
		c-0.09,0.3-0.28,0.27-0.49,0.2c-1.72-0.52-3.49-0.74-5.26-0.91c-2.23-0.22-4.47-0.43-6.7-0.6c-2.06-0.16-4.12-0.29-6.18-0.39
		c-2.09-0.1-4.18-0.15-6.27-0.23c-2.27-0.08-4.53-0.18-6.8-0.23c-2.04-0.05-4.08-0.05-6.13-0.07c-4.29-0.05-8.58-0.12-12.87-0.15
		c-9.81-0.06-19.61-0.11-29.42-0.15c-2.66-0.01-5.31,0.03-7.97,0.06c-3.45,0.04-6.89,0.09-10.34,0.16
		c-2.17,0.04-4.34,0.09-6.51,0.15c-2.93,0.09-5.86,0.2-8.79,0.3c-1.86,0.06-3.72,0.09-5.58,0.16c-1.71,0.06-3.41,0.15-5.12,0.23
		c-0.74,0.03-1.48,0.04-2.22,0.08c-2.19,0.1-4.38,0.2-6.57,0.3c-1.35,0.06-2.7,0.1-4.05,0.16c-1.73,0.08-3.46,0.18-5.19,0.27
		c-1.17,0.06-2.34,0.12-3.51,0.18c-1.65,0.09-3.31,0.17-4.96,0.26c-2.06,0.11-4.12,0.23-6.18,0.35c-1.42,0.08-2.85,0.18-4.27,0.26
		c-1.91,0.12-3.81,0.23-5.72,0.35c-2.08,0.13-4.17,0.28-6.25,0.42c-1.75,0.12-3.51,0.22-5.26,0.35c-1.96,0.14-3.91,0.29-5.87,0.43
		c-2.31,0.17-4.62,0.32-6.93,0.49c-2.36,0.18-4.72,0.36-7.08,0.55c-2.72,0.22-5.43,0.43-8.14,0.67c-2.61,0.23-5.22,0.47-7.83,0.73
		c-3.78,0.36-7.55,0.73-11.33,1.11c-0.55,0.05-1.09,0.17-1.64,0.28c1.69-0.09,3.37-0.19,5.06-0.27c1.3-0.06,2.6-0.11,3.9-0.16
		c2.29-0.1,4.58-0.2,6.87-0.3c0.71-0.03,1.43-0.05,2.14-0.07c1.81-0.05,3.62-0.09,5.43-0.16c2.24-0.08,4.48-0.19,6.72-0.29
		c2.11-0.1,4.22-0.2,6.34-0.32c2.31-0.12,4.63-0.26,6.94-0.38c1.27-0.07,2.55-0.11,3.82-0.16c2.34-0.1,4.68-0.2,7.03-0.3
		c0.74-0.03,1.48-0.05,2.22-0.07c1.94-0.05,3.87-0.1,5.81-0.16c2.96-0.08,5.91-0.16,8.87-0.24c2.24-0.06,4.49-0.11,6.73-0.15
		c1.86-0.03,3.73-0.05,5.59-0.07c2.5-0.03,5-0.06,7.5-0.08c3.5-0.03,7-0.06,10.5-0.06c3.78,0,7.56,0.03,11.34,0.07
		c3.27,0.03,6.53,0.09,9.8,0.15c2.32,0.04,4.64,0.1,6.96,0.15c1.91,0.05,3.82,0.09,5.74,0.15c3.08,0.1,6.17,0.2,9.25,0.31
		c2.6,0.09,5.2,0.2,7.79,0.31c2.24,0.09,4.48,0.19,6.72,0.31c2.7,0.14,5.39,0.31,8.09,0.45c2.06,0.11,4.12,0.19,6.18,0.32
		c2.97,0.18,5.95,0.4,8.92,0.6c2.36,0.16,4.73,0.3,7.09,0.47c2.39,0.17,4.77,0.37,7.16,0.56c2.66,0.22,5.33,0.43,7.99,0.66
		c2.61,0.23,5.22,0.49,7.83,0.74c3.8,0.36,7.61,0.71,11.4,1.1c4.41,0.46,8.81,0.95,13.21,1.45c4.61,0.52,9.21,1.05,13.81,1.6
		c1.37,0.16,2.73,0.37,4.08,0.61c1.54,0.28,1.57,0.58,1.04,1.96c0.22,0.05,0.43,0.11,0.64,0.14c6.01,0.96,12.04,1.85,18.04,2.89
		c6.13,1.06,12.23,2.26,18.34,3.4c0.17,0.03,0.33,0.1,0.49,0.15c0,0.05,0,0.1,0,0.15c-1.13-0.17-2.27-0.32-3.4-0.5
		c-7.75-1.27-15.48-2.6-23.24-3.79c-5.71-0.87-11.46-1.57-17.19-2.3c-3.89-0.49-7.79-0.92-11.69-1.33
		c-2.99-0.32-5.98-0.57-8.97-0.85c-3.14-0.29-6.29-0.58-9.43-0.84c-2.33-0.2-4.67-0.36-7.01-0.54c-3.07-0.23-6.14-0.47-9.22-0.69
		c-2.13-0.15-4.27-0.26-6.41-0.38c-0.73-0.04-1.47-0.1-2.22-0.01c0.42,0.05,0.83,0.11,1.25,0.16c4.43,0.53,8.86,1.02,13.27,1.61
		c3.26,0.43,6.5,1,9.74,1.51c0.08,0.01,0.15,0.02,0.23,0.04c0.93,0.23,1.13,0.85,0.52,1.61c-0.2,0.25-0.45,0.19-0.7,0.16
		c-1.26-0.15-2.53-0.3-3.79-0.45c-3.51-0.42-7.03-0.86-10.55-1.24c-4.2-0.45-8.41-0.84-12.62-1.24c-3.17-0.3-6.34-0.58-9.51-0.84
		c-2.41-0.2-4.83-0.36-7.24-0.54c-2.34-0.17-4.67-0.37-7.01-0.53c-2.08-0.14-4.17-0.25-6.25-0.38c-1.93-0.12-3.86-0.26-5.79-0.38
		c-1.53-0.09-3.05-0.15-4.58-0.23c-1.73-0.09-3.46-0.19-5.19-0.28c-1.27-0.07-2.55-0.12-3.82-0.18c-2.01-0.1-4.02-0.2-6.03-0.29
		c-1.45-0.06-2.9-0.07-4.34-0.12c-1.09-0.03-2.18-0.09-3.28-0.13c-0.28-0.01-0.56,0-0.84,0.05c1.71,0.08,3.43,0.16,5.14,0.25
		c1.78,0.09,3.56,0.18,5.34,0.27c1.17,0.06,2.34,0.12,3.51,0.19c1.42,0.08,2.85,0.16,4.27,0.25c1.86,0.12,3.71,0.23,5.56,0.36
		c1.85,0.13,3.71,0.27,5.56,0.41c2.21,0.17,4.42,0.33,6.62,0.51c2.11,0.17,4.21,0.36,6.31,0.56c3.88,0.37,7.76,0.72,11.63,1.13
		c3.77,0.4,7.54,0.84,11.31,1.3c5.06,0.62,10.11,1.23,15.16,1.91c6.09,0.81,12.18,1.61,18.21,2.75c0.8,0.15,1.59,0.36,2.37,0.6
		c0.9,0.28,1.03,0.46,0.97,1.03c-0.1,0.92-0.5,1.42-1.32,1.47c-0.74,0.05-1.48,0.04-2.22,0.01c-2.01-0.08-4.02-0.18-6.03-0.29
		c-2.21-0.12-4.43-0.26-6.64-0.38c-1.63-0.09-3.26-0.15-4.89-0.23c-1.78-0.09-3.56-0.19-5.34-0.28c-1.25-0.06-2.5-0.12-3.74-0.18
		c-2.06-0.1-4.12-0.2-6.19-0.29c-1.43-0.06-2.85-0.11-4.28-0.17c-2.39-0.1-4.79-0.2-7.18-0.29c-1.66-0.06-3.31-0.12-4.97-0.17
		c-3.29-0.1-6.58-0.2-9.87-0.3c-1.25-0.04-2.5-0.07-3.75-0.09c-2.65-0.05-5.31-0.1-7.96-0.15c-0.25,0-0.51,0-0.77,0.1
		c1.63,0.22,3.26,0.44,4.89,0.66c3.13,0.42,6.26,0.83,9.39,1.28c4.09,0.58,8.17,1.17,12.25,1.78c4.46,0.67,8.92,1.34,13.37,2.07
		c5.28,0.86,10.56,1.74,15.83,2.67c5.09,0.9,10.18,1.85,15.26,2.81c6.36,1.19,12.72,2.44,19.08,3.6c6.37,1.16,12.75,2.24,19.12,3.38
		c0.89,0.16,1.76,0.47,2.64,0.71c0.35,0.09,0.47,0.35,0.38,0.64c-0.2,0.65-0.43,1.29-0.7,1.91c-0.13,0.3-0.46,0.29-0.74,0.25
		c-0.73-0.11-1.47-0.2-2.19-0.37c-6.38-1.52-12.86-2.51-19.29-3.77c-6.18-1.21-12.36-2.42-18.55-3.6
		c-5.86-1.12-11.72-2.22-17.6-3.28c-5.24-0.94-10.49-1.86-15.75-2.71c-6.39-1.03-12.8-1.99-19.2-2.95
		c-4.51-0.68-9.03-1.32-13.55-1.94c-4.06-0.56-8.14-1.07-12.21-1.58c-3.67-0.46-7.34-0.9-11.01-1.34c-2.13-0.25-4.25-0.47-6.38-0.7
		c-0.25-0.03-0.51-0.01-0.77-0.01c-5.75,0-11.49-0.01-17.24,0c-3.27,0.01-6.54,0.03-9.81,0.07c-3.52,0.04-7.05,0.09-10.57,0.15
		c-2.6,0.04-5.21,0.1-7.81,0.15c-2.12,0.05-4.24,0.09-6.35,0.15c-3.57,0.1-7.14,0.2-10.71,0.31c-2.96,0.09-5.91,0.2-8.87,0.3
		c-2.63,0.1-5.25,0.2-7.87,0.31c-2.32,0.1-4.64,0.19-6.95,0.31c-2.83,0.14-5.65,0.3-8.48,0.45c-2.19,0.11-4.38,0.2-6.57,0.32
		c-2.37,0.13-4.73,0.29-7.1,0.44c-1.91,0.11-3.82,0.21-5.73,0.33c-2.03,0.13-4.07,0.28-6.1,0.42c-2.47,0.17-4.93,0.32-7.4,0.5
		c-2.44,0.18-4.88,0.37-7.32,0.56c-2.82,0.22-5.64,0.43-8.46,0.67c-2.72,0.23-5.43,0.48-8.15,0.73c-3.96,0.36-7.92,0.71-11.87,1.11
		c-4.03,0.4-8.06,0.85-12.09,1.3c-3.8,0.42-7.6,0.85-11.39,1.3c-3.44,0.41-6.88,0.86-10.32,1.32c-3.94,0.52-7.88,1.04-11.82,1.59
		c-4.04,0.57-8.07,1.16-12.11,1.77c-4.44,0.67-8.87,1.34-13.3,2.04c-4.26,0.67-8.51,1.36-12.76,2.07
		c-5.26,0.88-10.51,1.76-15.76,2.68c-5.25,0.92-10.49,1.87-15.73,2.82c-4.39,0.79-8.78,1.59-13.17,2.4
		c-0.34,0.06-0.68,0.18-1.02,0.27c-0.2,0-0.41,0-0.61,0c-0.27-0.33-0.59-0.63-0.81-0.99c-0.6-0.95-0.6-1.47,0.69-1.78
		c3.86-0.94,7.7-1.98,11.58-2.86c6.83-1.55,13.68-3.08,20.54-4.49c6.77-1.39,13.56-2.67,20.35-3.92c6.49-1.2,13-2.33,19.51-3.42
		c5.63-0.95,11.27-1.84,16.91-2.68c5.24-0.79,10.49-1.5,15.74-2.21c4.57-0.62,9.14-1.21,13.72-1.76c5.94-0.71,11.89-1.38,17.84-2.05
		c2.83-0.32,5.67-0.59,8.51-0.9c0.73-0.08,1.45-0.22,2.17-0.33c0.42,0,0.84,0,1.26,0c0-0.03,0-0.07-0.01-0.1
		c-0.41,0.04-0.83,0.07-1.24,0.11c-0.66,0.05-1.32,0.11-1.98,0.17c-2.69,0.24-5.38,0.47-8.06,0.74c-3.27,0.32-6.54,0.65-9.8,1
		c-3.47,0.38-6.93,0.78-10.4,1.19c-4.33,0.51-8.65,1.02-12.97,1.57c-4.45,0.57-8.89,1.18-13.33,1.79c-4.42,0.61-8.83,1.23-13.24,1.9
		c-4.74,0.71-9.47,1.45-14.2,2.23c-5.81,0.96-11.61,1.94-17.41,2.98c-5.87,1.05-11.73,2.18-17.59,3.28
		c-7.69,1.44-15.38,2.91-23.07,4.34c-2.96,0.55-5.94,0.97-8.89,1.52c-1.41,0.26-2.02-0.72-2.39-1.72c-0.14-0.39,0-0.77,0.37-1
		c0.52-0.32,1.03-0.66,1.59-0.9c1.31-0.56,2.64-1.09,3.97-1.6c1.07-0.41,2.16-0.75,3.24-1.13c-0.2-0.83-0.14-0.99,0.61-1.33
		c0.63-0.29,1.26-0.55,1.91-0.79c5.16-1.91,10.41-3.56,15.68-5.17c0.21-0.06,0.41-0.13,0.62-0.19c-1.37,0.1-2.7,0.32-4.03,0.56
		c-5.55,0.99-11.09,1.97-16.63,3c-4.99,0.92-9.97,1.89-14.95,2.85c-1.9,0.37-3.8,0.76-5.69,1.17c-0.49,0.11-0.89-0.02-1.15-0.38
		c-0.27-0.36-0.46-0.79-0.62-1.22c-0.13-0.33,0.02-0.6,0.35-0.74c0.19-0.08,0.39-0.13,0.58-0.18c2.56-0.69,5.12-1.39,7.68-2.06
		c6.84-1.77,13.7-3.42,20.62-4.84c6.04-1.24,12.09-2.45,18.16-3.58c4.81-0.9,9.64-1.71,14.47-2.51c4.73-0.78,9.46-1.52,14.2-2.23
		c3.75-0.56,7.52-1.06,11.28-1.58c1.61-0.22,3.25-0.36,4.84-0.68c5.65-1.14,11.27-2.38,16.92-3.51c5.45-1.09,10.91-2.12,16.37-3.12
		c4.66-0.85,9.34-1.64,14.01-2.41c4.02-0.66,8.05-1.28,12.08-1.89c4.08-0.62,8.17-1.21,12.25-1.78c3.61-0.5,7.22-0.96,10.83-1.43
		c1.36-0.18,2.72-0.35,4.07-0.53c-0.26-0.07-0.51-0.1-0.76-0.07c-1.49,0.15-2.99,0.3-4.48,0.47c-4.86,0.55-9.72,1.09-14.58,1.66
		c-5.14,0.6-10.27,1.21-15.4,1.87c-6.24,0.81-12.47,1.65-18.7,2.54c-6.31,0.9-12.61,1.83-18.9,2.81c-5.74,0.9-11.47,1.85-17.19,2.86
		c-7.68,1.35-15.36,2.72-23.02,4.19c-7.76,1.49-15.51,3.04-23.23,4.72c-11.65,2.54-23.28,5.21-34.91,7.84
		c-8.01,1.81-16.01,3.64-24,5.48c-0.59,0.14-1.03,0.1-1.41-0.37C0.07,41.512,0.07,41.402,0.07,41.302z M108.52,38.782
		c0.31-0.05,0.62-0.09,0.93-0.14c1.13-0.18,2.25-0.38,3.38-0.54c4.56-0.64,9.13-1.29,13.7-1.91c4.06-0.55,8.13-1.1,12.2-1.6
		c4.57-0.56,9.15-1.08,13.73-1.61c3.52-0.4,7.03-0.79,10.55-1.15c3.88-0.39,7.75-0.75,11.63-1.12c2.66-0.25,5.32-0.49,7.99-0.72
		c2.71-0.23,5.43-0.44,8.15-0.66c1.75-0.14,3.5-0.29,5.25-0.42c2.39-0.18,4.77-0.34,7.16-0.51c1.96-0.14,3.91-0.28,5.87-0.41
		c1.85-0.12,3.71-0.23,5.57-0.35c1.37-0.09,2.74-0.18,4.12-0.26c2.03-0.12,4.07-0.24,6.1-0.35c1.65-0.09,3.31-0.17,4.96-0.26
		c1.14-0.06,2.29-0.13,3.43-0.19c1.73-0.09,3.46-0.18,5.19-0.26c1.35-0.06,2.7-0.11,4.05-0.16c2.19-0.1,4.38-0.2,6.57-0.29
		c0.74-0.03,1.48-0.04,2.22-0.08c1.7-0.07,3.41-0.16,5.11-0.23c1.71-0.06,3.41-0.1,5.12-0.16c2.57-0.09,5.14-0.2,7.71-0.3
		c1.66-0.06,3.31-0.11,4.97-0.15c1.96-0.05,3.93-0.11,5.89-0.15c2.14-0.05,4.28-0.11,6.42-0.15c2.68-0.06,5.36-0.11,8.03-0.15
		c1.61-0.03,3.21-0.05,4.82-0.07c3.42-0.03,6.84-0.06,10.26-0.09c0.43,0,0.87,0,1.3-0.01c0.12,0,0.25-0.02,0.37-0.03
		c-0.85-0.15-1.71-0.23-2.56-0.3c-2.89-0.24-5.79-0.5-8.68-0.72c-2.34-0.18-4.68-0.33-7.02-0.48c-2.95-0.2-5.9-0.46-8.85-0.57
		c-2.6-0.1-5.21-0.05-7.81-0.01c-3.01,0.06-6.02,0.19-9.03,0.29c-1.4,0.05-2.8,0.1-4.21,0.16c-2.55,0.12-5.09,0.26-7.64,0.38
		c-2.65,0.13-5.3,0.23-7.95,0.38c-2.85,0.16-5.7,0.35-8.55,0.54c-3.1,0.2-6.21,0.39-9.31,0.61c-3.53,0.24-7.07,0.5-10.6,0.77
		c-3.73,0.29-7.47,0.59-11.2,0.91c-4.04,0.35-8.07,0.7-12.1,1.08c-4.62,0.44-9.23,0.9-13.84,1.37c-3.14,0.32-6.28,0.65-9.42,1
		c-3.39,0.38-6.78,0.79-10.17,1.19c-3.54,0.42-7.08,0.85-10.62,1.3c-3.29,0.42-6.57,0.85-9.85,1.3c-4.14,0.57-8.28,1.15-12.41,1.76
		c-3.78,0.56-7.56,1.16-11.33,1.75c-2.79,0.44-5.58,0.91-8.37,1.38c-0.11,0.02-0.21,0.16-0.32,0.23
		C109.13,38.612,108.78,38.372,108.52,38.782c-0.26-0.02-0.53-0.03-0.79-0.05c0,0.03,0,0.05,0,0.08
		C108,38.802,108.26,38.792,108.52,38.782z M97.95,33.732c0.31-0.04,0.62-0.09,0.94-0.13c0.09-0.03,0.18-0.08,0.28-0.09
		c4.66-0.71,9.32-1.45,13.98-2.12c6.86-0.97,13.73-1.92,20.6-2.81c6.14-0.8,12.28-1.53,18.43-2.23c5.06-0.57,10.13-1.05,15.2-1.56
		c2.58-0.26,5.17-0.51,7.76-0.74c2.69-0.24,5.38-0.45,8.07-0.66c1.88-0.15,3.76-0.28,5.64-0.42c1.88-0.13,3.76-0.26,5.64-0.39
		c1.85-0.13,3.71-0.25,5.56-0.37c1.4-0.09,2.8-0.15,4.2-0.23c2.11-0.12,4.22-0.26,6.33-0.37c1.78-0.09,3.56-0.15,5.35-0.23
		c0.67-0.03,1.34-0.09,2-0.13c-0.23-0.1-0.45-0.11-0.68-0.1c-1.2,0.03-2.39,0.06-3.59,0.09c-1.89,0.05-3.77,0.1-5.66,0.15
		c-0.87,0.02-1.73,0.04-2.6,0.07c-2.73,0.1-5.45,0.2-8.18,0.3c-1.4,0.05-2.8,0.1-4.2,0.16c-1.96,0.09-3.92,0.2-5.88,0.3
		c-1.83,0.09-3.67,0.12-5.5,0.26c-2.82,0.21-5.64,0.48-8.45,0.76c-4.54,0.44-9.08,0.9-13.61,1.38c-3.83,0.41-7.65,0.83-11.47,1.3
		c-4.3,0.52-8.6,1.04-12.89,1.65c-5.57,0.79-11.14,1.64-16.7,2.51c-4.45,0.7-8.9,1.48-13.34,2.23c-1.98,0.34-3.96,0.7-5.95,1.05
		c-0.14,0.03-0.41-0.06-0.33,0.26C98.56,33.562,98.21,33.312,97.95,33.732c-0.26-0.02-0.52-0.03-0.78-0.04c0,0.03,0,0.06,0,0.1
		C97.43,33.772,97.69,33.752,97.95,33.732z M381.73,22.592c-45.29-4.45-90.69-5.17-136.15-3.84c0.22,0.05,0.43,0.08,0.65,0.08
		c2.96,0.03,5.92,0.06,8.88,0.09c0.97,0.01,1.94,0.04,2.91,0.06c3.08,0.08,6.17,0.16,9.25,0.24c1.81,0.05,3.62,0.1,5.43,0.16
		c0.69,0.02,1.38,0.04,2.06,0.07c2.01,0.1,4.02,0.25,6.03,0.28c1.78,0.03,3.57-0.1,5.35-0.13c1.86-0.04,3.73-0.07,5.59-0.07
		c9.09,0.04,18.18-0.12,27.27,0.15c2.35,0.07,4.69,0.1,7.04,0.16c3.03,0.07,6.07,0.14,9.1,0.22c0.82,0.02,1.63,0.06,2.44,0.09
		c2.29,0.1,4.58,0.2,6.87,0.3c1.35,0.06,2.7,0.1,4.05,0.17c1.81,0.09,3.61,0.2,5.42,0.29c1.55,0.08,3.11,0.14,4.66,0.23
		c1.85,0.11,3.71,0.26,5.56,0.38c2.01,0.13,4.02,0.25,6.02,0.38c3.38,0.23,6.76,0.46,10.13,0.68
		C380.77,22.622,381.25,22.592,381.73,22.592z M318.32,22.452c-0.01,0.01-0.01,0.01-0.02,0.02c2.55,0.25,5.11,0.49,7.66,0.74
		c2.53,0.25,5.07,0.51,7.6,0.76c1.29,0.13,2.58,0.31,3.88,0.36c2.06,0.08,4.13,0.07,6.2,0.1c3.7,0.05,7.4,0.1,11.1,0.16
		c2.42,0.04,4.84,0.1,7.27,0.15c2.27,0.05,4.54,0.11,6.81,0.15c1.5,0.03,3.01,0.04,4.51,0.07c0.94,0.02,1.88,0.06,2.83,0.09
		c1.99,0.07,3.97,0.14,5.96,0.2c0.18,0.01,0.35-0.02,0.53-0.04c-0.74-0.13-1.47-0.21-2.2-0.26c-2.23-0.17-4.47-0.34-6.71-0.49
		c-2.06-0.15-4.12-0.3-6.17-0.42c-1.53-0.09-3.05-0.16-4.58-0.23c-2.14-0.1-4.28-0.2-6.42-0.3c-1.5-0.06-3.01-0.11-4.51-0.16
		c-1.96-0.07-3.92-0.16-5.88-0.23c-1.81-0.06-3.62-0.1-5.43-0.16c-2.96-0.1-5.91-0.21-8.87-0.29c-1.56-0.05-3.11-0.04-4.67-0.07
		c-1.48-0.03-2.96-0.11-4.44-0.14C321.27,22.432,319.79,22.452,318.32,22.452z M53.91,38.562c0.01,0.05,0.02,0.11,0.03,0.16
		c10.19-2.79,20.45-5.24,30.79-7.43c-0.11-0.05-0.21-0.07-0.3-0.06c-2.32,0.3-4.65,0.59-6.97,0.92c-1.46,0.21-2.95,0.34-4.36,0.72
		c-4.55,1.24-9.07,2.57-13.59,3.9C57.63,37.322,55.78,37.962,53.91,38.562z M55.6,41.312c-4.62,1.13-9.32,1.77-13.73,3.55
		c0.01,0.05,0.02,0.1,0.03,0.16c4.79-0.86,9.59-1.71,14.43-2.58C56.06,42.022,55.86,41.712,55.6,41.312z M280.32,15.642
		c7.03,0,14.07,0,20.04,0C294.4,15.432,287.36,15.342,280.32,15.642z M305.24,15.742c0-0.02,0-0.04,0-0.06c-0.89,0-1.79,0-2.68,0
		c0,0.02,0,0.04,0,0.06C303.45,15.742,304.35,15.742,305.24,15.742z M307.4,15.812c-0.01,0.01-0.02,0.03-0.03,0.04
		c0.37,0,0.74,0,1.11,0c0-0.01,0-0.03,0-0.04C308.12,15.812,307.76,15.812,307.4,15.812z M310.62,15.822c0,0.02,0,0.04,0,0.06
		c0.33,0,0.67,0,1,0c0-0.02,0-0.04,0-0.06C311.29,15.822,310.95,15.822,310.62,15.822z M330.88,16.502c0-0.02,0-0.05,0-0.07
		c-0.38,0-0.76,0-1.13,0c0,0.02,0,0.05,0,0.07C330.13,16.502,330.51,16.502,330.88,16.502z M189.22,25.642
		c-0.38-0.02-0.64-0.04-0.91-0.06c0,0.04,0,0.08,0,0.12C188.57,25.682,188.83,25.662,189.22,25.642z M325.96,16.272
		c-0.02,0.02-0.04,0.05-0.06,0.07c0.27,0,0.54,0,0.8,0c0-0.02,0-0.05,0-0.07C326.45,16.272,326.21,16.272,325.96,16.272z
		 M328.72,16.472c-0.01-0.03-0.01-0.05-0.02-0.08c-0.17,0.01-0.33,0.02-0.5,0.03c0,0.02,0,0.03,0,0.05
		C328.38,16.472,328.55,16.472,328.72,16.472z M314.42,16.012c-0.01-0.01-0.01-0.03-0.02-0.04c-0.11,0-0.23,0-0.35,0
		c0,0.01,0,0.03,0,0.04C314.18,16.012,314.3,16.012,314.42,16.012z M321.52,16.122c0,0.02,0,0.05,0,0.07c0.21,0,0.42,0,0.63,0
		c0-0.02,0-0.05,0-0.07C321.94,16.122,321.73,16.122,321.52,16.122z M317.12,16.042c0-0.02,0-0.04,0-0.06c-0.18,0-0.36,0-0.54,0
		c0,0.02,0,0.04,0,0.06C316.76,16.042,316.94,16.042,317.12,16.042z"/>
</g>
</svg>
