<svg xmlns="http://www.w3.org/2000/svg" width="112" height="112" viewBox="0 0 112 112">
    <g fill="none" fill-rule="evenodd">
        <path fill="#1E2D44" fill-opacity=".3" fill-rule="nonzero" d="M56 107c28.167 0 51-22.833 51-51S84.167 5 56 5 5 27.833 5 56s22.833 51 51 51z"/>
        <path fill="#FFF" fill-rule="nonzero" d="M56 107c28.167 0 51-22.833 51-51S84.167 5 56 5 5 27.833 5 56s22.833 51 51 51zm0 5C25.072 112 0 86.928 0 56S25.072 0 56 0s56 25.072 56 56-25.072 56-56 56z"/>
        <path fill="#FFF" d="M71.706 60.244L51.51 73.23c-2.291 1.474-5.317.768-6.757-1.576A5.098 5.098 0 0 1 44 68.986V43.013C44 40.245 46.194 38 48.901 38a4.82 4.82 0 0 1 2.608.769l20.197 12.986c2.292 1.474 2.982 4.568 1.542 6.913a4.959 4.959 0 0 1-1.542 1.576z"/>
    </g>
</svg>
