<svg xmlns="http://www.w3.org/2000/svg" xmlns:xlink="http://www.w3.org/1999/xlink" width="160" height="133" viewBox="0 0 160 133">
    <defs>
        <path id="b" d="M129.623 111H46.377C42.87 111 40 108.083 40 104.518V48.482C40 44.917 42.87 42 46.377 42h83.246c3.507 0 6.377 2.917 6.377 6.482v56.036c0 3.565-2.87 6.482-6.377 6.482zm-78.17-31.1c-.369-2.13.587-3.702 2.539-4.052 2.13-.382 3.369.532 3.77 2.845.414 2.386-.453 3.83-2.512 4.199-1.95.35-3.408-.753-3.797-2.993zm6.936-5.975c2.31-.415 4.085-.923 5.398-1.726l-1.959-3.775c-2.082 1.736-4.124 3.276-8.55 3.957-4.804.86-7.686 4.216-6.94 8.512.433 2.496 1.743 4.04 4.356 4.934-1.22 1.129-1.851 2.642-1.608 4.037.355 2.057 2.324 3.52 6.333 2.802l2.818-.506c2.023-.361 3.138.273 3.367 1.594.242 1.395-.525 2.553-4.065 3.188-3.649.654-4.583-.01-4.903-1.847l-4.586.822c.675 3.893 2.99 5.862 9.998 4.605 6.394-1.145 9.34-4.133 8.658-8.062-.56-3.23-3.75-5.081-8.084-4.305l-2.926.524c-1.879.337-2.313-.228-2.427-.89-.09-.513.117-1.044.5-1.414.719.06 1.453.004 2.284-.145 4.877-.875 7.397-4.164 6.74-7.946-.426-2.46-1.873-3.716-4.404-4.36zm19.65 2.686l.037.22-6.972 1.25c-.384-3.717.639-5.338 2.661-5.7 2.457-.441 3.763 1.293 4.273 4.23zm5.589 2.595c-.06-.557-.127-1.377-.242-2.039-1.077-6.205-4.928-9.3-10.347-8.329-5.599 1.004-7.916 6.113-6.896 11.987 1.057 6.095 4.985 9.63 11.126 8.531 2.998-.538 5.192-2.066 6.802-3.945l-2.64-2.555c-1.459 1.473-2.742 2.234-4.367 2.525-2.457.44-4.382-.351-5.393-4.032l11.957-2.143zm18.898-9.596c-.637-3.672-3.007-5.517-6.366-4.916-2.456.44-4.107 1.87-5.323 4.096l-.823-2.388-4.444.796 3.375 19.46 5.13-.92-2.33-13.437c.747-1.915 1.731-3.113 3.213-3.378 1.3-.233 2.202.248 2.591 2.488l2.305 13.29 5.13-.918-2.458-14.173zm13.905 12.727c1.698-.304 3.488-1.155 4.724-2.398l-2.35-3.026c-.71.62-1.36.965-2.046 1.088-1.3.233-2.042-.392-2.373-2.301l-1.663-9.583 3.902-.7-.132-3.76-4.406.79-.847-4.885-5.022 1.543.739 4.26-2.854.512.637 3.67 2.853-.51 1.682 9.692c.752 4.333 3.176 6.284 7.156 5.608zm10.948-19.466c-.292-1.688-1.914-2.874-3.648-2.564-1.698.305-2.822 1.983-2.53 3.671.3 1.726 1.921 2.912 3.62 2.607 1.733-.31 2.857-1.988 2.558-3.714zm2.033 13.256c-.294-1.69-1.915-2.875-3.649-2.564-1.698.305-2.822 1.98-2.529 3.67.3 1.726 1.92 2.913 3.618 2.607 1.734-.31 2.859-1.988 2.56-3.713z"/>
        <filter id="a" width="208.3%" height="250.7%" x="-54.2%" y="-63.8%" filterUnits="objectBoundingBox">
            <feOffset dy="8" in="SourceAlpha" result="shadowOffsetOuter1"/>
            <feGaussianBlur in="shadowOffsetOuter1" result="shadowBlurOuter1" stdDeviation="16"/>
            <feColorMatrix in="shadowBlurOuter1" values="0 0 0 0 0.584313725 0 0 0 0 0.00392156863 0 0 0 0 0.00392156863 0 0 0 0.2 0"/>
        </filter>
    </defs>
    <g fill="none" fill-rule="nonzero" transform="translate(-8 -18)">
        <use fill="#000" filter="url(#a)" xlink:href="#b"/>
        <use fill="#FFF" xlink:href="#b"/>
    </g>
</svg>
