<?xml version="1.0" standalone="no"?>
<!DOCTYPE svg PUBLIC "-//W3C//DTD SVG 1.1//EN" "http://www.w3.org/Graphics/SVG/1.1/DTD/svg11.dtd" >
<svg xmlns="http://www.w3.org/2000/svg">
<defs>
  <font id="gf-icons" horiz-adv-x="9769.403560830859">
    <font-face font-family="gf-icons"
      units-per-em="1001" ascent="1001"
      descent="0" />
    <missing-glyph horiz-adv-x="0" />
    <glyph glyph-name="arrow-down"
      unicode="&#xE001;"
      horiz-adv-x="1001" d="M482.9199375 170.1700000000001L295.26371875 357.8575000000001A46.765468750000004 46.765468750000004 0 0 0 281.53125 391.015625A46.92187500000001 46.92187500000001 0 0 0 361.6112500000001 424.17375L469.21875 316.59753125V766.42190625A46.92187500000001 46.92187500000001 0 1 0 563.0625 766.42190625V316.59753125L670.6700000000001 424.2050312500001A46.92187500000001 46.92187500000001 0 1 0 736.98625 357.82621875L549.3300312500002 170.1700000000001C544.9506562500001 165.790625 539.7266875000001 162.3496875000001 534.0022187500001 159.94103125L533.2201875000002 159.7220625C527.9023750000001 157.6262187499999 522.1779062500002 156.4062499999999 516.1406250000002 156.4062499999999C510.0720625000002 156.4062499999999 504.3475937500003 157.6574999999999 499.0297812500002 159.7220625L498.2790312500002 159.94103125A47.672625000000004 47.672625000000004 0 0 0 482.9512187500002 170.1700000000001z" />
    <glyph glyph-name="arrow-left"
      unicode="&#xE002;"
      horiz-adv-x="1001" d="M201.45125 518.0800624999999L389.10746875 705.73628125A46.765468750000004 46.765468750000004 0 0 0 422.296875 719.46875A46.92187500000001 46.92187500000001 0 0 0 455.455 639.38875L347.8787812500001 531.78125H797.671875A46.92187500000001 46.92187500000001 0 1 0 797.671875 437.9375H347.8787812500001L455.455 330.3612812500001A46.92187500000001 46.92187500000001 0 1 0 389.10746875 264.0137500000001L201.45125 451.66996875C197.071875 456.04934375 193.6309375 461.2733125 191.22228125 467.0290625L191.0033125 467.7798125A46.390093750000005 46.390093750000005 0 0 0 187.6875 484.859375C187.6875 490.9279375 188.90746875 496.65240625 191.0033125 501.97021875L191.22228125 502.72096875C193.6309375 508.47671875 197.071875 513.7006875 201.45125 518.0800624999999z" />
    <glyph glyph-name="arrow-right-extra-long"
      unicode="&#xE003;"
      horiz-adv-x="2952.95" d="M2706.75405 558.3077499999999L2545.4429 719.6188999999999L2618.16555 792.2915L2910.95805 499.499L2620.16755 208.7085000000002L2546.99445 281.8816000000002L2716.9142 451.8514000000001H0V558.3077499999999z" />
    <glyph glyph-name="arrow-right-long"
      unicode="&#xE004;"
      horiz-adv-x="1401.3999999999999" d="M1205.25405 558.3077499999999L1043.9429 719.6188999999999L1116.66555 792.2915L1409.45805 499.499L1118.6675500000001 208.7085000000002L1045.4944500000001 281.8816000000002L1215.4142000000002 451.8514000000001H0V558.3077499999999z" />
    <glyph glyph-name="arrow-right"
      unicode="&#xE005;"
      horiz-adv-x="1067.7333333333333" d="M579.4675553333333 1001L452.8076886666667 875.1856446666667L727.5735133333333 600.421822H0V422.8224H727.5735133333333L452.8076886666667 148.0612466666667L579.4675553333333 22.24222L1067.7333333333333 511.6224446666666L579.4675553333333 1001z" />
    <glyph glyph-name="arrow-up"
      unicode="&#xE006;"
      horiz-adv-x="1001" d="M427.9994155937501 632.1718778375L221.000426521875 435.2119847075001L125.125 526.43761795625L492.3732932868751 875.875L875.875 510.9724670050001L784.06292965 423.6131211812499L561.544248890625 635.34002406875L561.544248890625 125.125L427.9994155937501 125.125z" />
    <glyph glyph-name="balloon"
      unicode="&#xE007;"
      horiz-adv-x="1001" d="M423.17275 185.1850000000001C286.53625 240.3025624999999 172.046875 430.8679375000001 172.046875 608.1075C172.046875 805.8675625 322.35328125 954.078125 500.5 954.078125S828.953125 805.8675625 828.953125 608.1075C828.953125 430.8366562500001 714.46375 240.2712812499999 577.82725 185.1850000000001L629.9730937500001 124.3742500000001C656.06165625 93.9375937500001 634.4463125000001 46.9218750000001 594.3437500000001 46.9218750000001H406.6562500000001C366.5536875000002 46.9218750000001 344.9383437500001 93.9375937500001 371.0269062500002 124.3742500000001L423.1727500000001 185.2162812500001zM500.5 263.3568437500001C607.9510937499999 263.3568437500001 735.109375 444.3188750000001 735.109375 608.13878125C735.109375 753.78428125 627.0952187500001 860.26565625 500.5 860.26565625C373.90478125 860.26565625 265.890625 753.78428125 265.890625 608.13878125C265.890625 444.3188750000001 393.04890625 263.3568437500001 500.5 263.3568437500001zM698.4477499999999 646.9900937499999A46.92187500000001 46.92187500000001 0 1 0 606.4183125 628.65928125C597.6595625 672.546875 573.3853124999999 706.2993437499999 541.88509375 723.0660937499999A46.92187500000001 46.92187500000001 0 1 0 585.960375 805.89884375C642.79840625 775.68115625 684.3086249999999 717.9985312499999 698.4477499999999 646.9900937499999z" />
    <glyph glyph-name="calendar-add"
      unicode="&#xE008;"
      horiz-adv-x="1001" d="M109.484375 594.34375H891.515625V719.46875A46.92187500000001 46.92187500000001 0 0 1 844.59375 766.390625H750.75V750.75A46.92187500000001 46.92187500000001 0 0 0 656.90625 750.75V766.390625H344.09375V750.75A46.92187500000001 46.92187500000001 0 0 0 250.25 750.75V766.390625H156.40625A46.92187500000001 46.92187500000001 0 0 1 109.484375 719.46875V594.34375zM109.484375 531.78125V218.96875A46.92187500000001 46.92187500000001 0 0 1 156.40625 172.046875H844.59375A46.92187500000001 46.92187500000001 0 0 1 891.515625 218.96875V531.78125H109.484375zM250.25 860.234375V907.15625A46.92187500000001 46.92187500000001 0 0 0 344.09375 907.15625V860.234375H656.90625V907.15625A46.92187500000001 46.92187500000001 0 0 0 750.75 907.15625V860.234375H844.59375A140.765625 140.765625 0 0 0 985.359375 719.46875V218.96875A140.765625 140.765625 0 0 0 844.59375 78.203125H156.40625A140.765625 140.765625 0 0 0 15.640625 218.96875V719.46875A140.765625 140.765625 0 0 0 156.40625 860.234375H250.25zM531.78125 391.015625H594.34375A31.28125 31.28125 0 0 0 594.34375 328.453125H531.78125V265.890625A31.28125 31.28125 0 0 0 469.21875 265.890625V328.453125H406.65625A31.28125 31.28125 0 0 0 406.65625 391.015625H469.21875V453.578125A31.28125 31.28125 0 0 0 531.78125 453.578125V391.015625z" />
    <glyph glyph-name="calendar-remove"
      unicode="&#xE009;"
      horiz-adv-x="1001" d="M109.484375 594.34375H891.515625V719.46875A46.92187500000001 46.92187500000001 0 0 1 844.59375 766.390625H750.75V750.75A46.92187500000001 46.92187500000001 0 0 0 656.90625 750.75V766.390625H344.09375V750.75A46.92187500000001 46.92187500000001 0 0 0 250.25 750.75V766.390625H156.40625A46.92187500000001 46.92187500000001 0 0 1 109.484375 719.46875V594.34375zM250.25 860.234375V907.15625A46.92187500000001 46.92187500000001 0 0 0 344.09375 907.15625V860.234375H656.90625V907.15625A46.92187500000001 46.92187500000001 0 0 0 750.75 907.15625V860.234375H844.59375A140.765625 140.765625 0 0 0 985.359375 719.46875V218.96875A140.765625 140.765625 0 0 0 844.59375 78.203125H156.40625A140.765625 140.765625 0 0 0 15.640625 218.96875V719.46875A140.765625 140.765625 0 0 0 156.40625 860.234375H250.25zM406.65625 328.453125H594.34375A31.28125 31.28125 0 0 1 594.34375 391.015625H406.65625A31.28125 31.28125 0 0 1 406.65625 328.453125z" />
    <glyph glyph-name="calendar"
      unicode="&#xE00A;"
      horiz-adv-x="1001" d="M563.0625 310.1848750000001A46.92187500000001 46.92187500000001 0 0 0 516.140625 263.2630000000001H359.734375A46.92187500000001 46.92187500000001 0 1 0 359.734375 357.1067500000001H516.140625A46.92187500000001 46.92187500000001 0 0 0 563.0625 310.1848750000001zM703.828125 469.21875A46.92187500000001 46.92187500000001 0 0 0 656.90625 422.296875H359.734375A46.92187500000001 46.92187500000001 0 1 0 359.734375 516.140625H656.90625A46.92187500000001 46.92187500000001 0 0 0 703.828125 469.21875zM782.03125 203.328125H250.25C233.2955625 203.328125 218.96875 217.68621875 218.96875 234.609375V578.703125H813.3125V234.609375C813.3125 217.68621875 798.9856875 203.328125 782.03125 203.328125zM218.96875 735.109375C218.96875 752.0638125 233.2955625 766.390625 250.25 766.390625H312.8125A46.92187500000001 46.92187500000001 0 1 1 406.65625 766.390625H641.265625A46.92187500000001 46.92187500000001 0 1 1 735.109375 766.390625H782.03125C798.9856875 766.390625 813.3125 752.0638125 813.3125 735.109375V672.546875H218.96875V735.109375zM782.03125 860.234375H735.109375A46.92187500000001 46.92187500000001 0 1 1 641.265625 860.234375H406.65625A46.92187500000001 46.92187500000001 0 1 1 312.8125 860.234375H250.25C181.43125 860.234375 125.125 803.928125 125.125 735.109375V234.609375C125.125 165.790625 181.43125 109.484375 250.25 109.484375H782.03125C850.85 109.484375 907.15625 165.790625 907.15625 234.609375V735.109375C907.15625 803.928125 850.85 860.234375 782.03125 860.234375z" />
    <glyph glyph-name="category"
      unicode="&#xE00B;"
      horiz-adv-x="1001" d="M148.55465625 842.5291875L129.87975 599.84925C128.84746875 586.3670312500001 133.758625 573.0725 143.3306875 563.5004375L553.553 153.2781249999999A46.390093750000005 46.390093750000005 0 0 1 619.14978125 153.2781249999999L837.80571875 371.9340625A46.390093750000005 46.390093750000005 0 0 1 837.80571875 437.4995625L427.552125 847.721875A46.390093750000005 46.390093750000005 0 0 1 391.2033125 861.1728125L148.55465625 842.5291875zM493.14890625 913.31865625L903.4025 503.09634375A139.139 139.139 0 0 0 903.4025 306.33728125L684.77784375 87.6813437499999A139.139 139.139 0 0 0 488.01878125 87.6813437499999L77.702625 497.90365625A139.139 139.139 0 0 0 37.3498125 606.9813750000001L59.09028125 889.263375A46.390093750000005 46.390093750000005 0 0 0 101.75790625 931.96228125L384.0711875 953.67146875A139.139 139.139 0 0 0 493.117625 913.31865625zM225.600375 568.693125A139.139 139.139 0 1 0 422.3594375 765.4521875A139.139 139.139 0 0 0 225.600375 568.693125zM291.19715625 634.2586249999999A46.390093750000005 46.390093750000005 0 1 1 356.7939375 699.85540625A46.390093750000005 46.390093750000005 0 0 1 291.19715625 634.2586249999999z" />
    <glyph glyph-name="chat-round"
      unicode="&#xE00C;"
      horiz-adv-x="1001" d="M524.8993750000001 618.743125C524.8993750000001 588.713125 549.51771875 564.3450312499999 579.8605312500001 564.3450312499999C610.20334375 564.3450312499999 634.79040625 588.713125 634.79040625 618.71184375C634.79040625 648.7418437499999 610.20334375 673.07865625 579.8605312500001 673.07865625S524.9306562500001 648.7418437499999 524.9306562500001 618.71184375M367.3670000000002 618.71184375C367.3670000000002 588.68184375 391.9540625000001 564.3450312499999 422.2968750000001 564.3450312499999S477.2267500000001 588.713125 477.2267500000001 618.71184375C477.2267500000001 648.7418437499999 452.6396875000002 673.07865625 422.2968750000001 673.07865625S367.3670000000002 648.7418437499999 367.3670000000002 618.71184375M264.7645000000001 673.07865625C234.3904062500002 673.07865625 209.8033437500001 648.7418437499999 209.8033437500001 618.71184375S234.3904062500002 564.3450312499999 264.7332187500002 564.3450312499999S319.6630937500002 588.713125 319.6630937500002 618.71184375C319.6630937500002 648.7418437499999 295.0760312500002 673.07865625 264.7332187500002 673.07865625M422.296875 911.535625C239.3015625 911.535625 90.4028125 783.2825 90.4028125 625.625C90.4028125 531.9689375 143.9563125 444.0686249999999 233.608375 390.48384375C244.21271875 384.16503125 251.7515 373.8109375 254.379125 361.83021875L272.7099375 279.4666875000001L343.8435 333.5206875000001C353.2278750000001 340.6528125000001 365.02090625 343.8435000000001 376.7826562500001 342.4671250000001C392.2668750000001 340.6215312500001 407.5946875 339.6830937500002 422.2968750000001 339.6830937500002C605.2921875000001 339.6830937500002 754.1909375 467.9362187500001 754.1909375 625.5937187500001C754.1909375 783.2512187500001 605.2921875000001 911.5043437500002 422.296875 911.5043437500002M243.868625 156.40625C238.6446562500001 156.40625 233.4206875 157.31340625 228.38440625 159.12771875A44.8573125 44.8573125 0 0 0 199.6995 191.5038125L170.1074375 324.449125C63.21940625 395.17603125 0 506.4434375 0 625.625C0 832.58175 189.43925 1001 422.296875 1001S844.59375 832.58175 844.59375 625.625C844.59375 418.63696875 655.1545 250.2187187500001 422.296875 250.2187187500001C410.00334375 250.2187187500001 397.42828125 250.7505000000001 384.72809375 251.7827812500001L271.396125 165.6655000000001A45.5455 45.5455 0 0 0 243.868625 156.4062500000001" />
    <glyph glyph-name="chat"
      unicode="&#xE00D;"
      horiz-adv-x="1001" d="M656.90625 563.0625A62.5625 62.5625 0 1 1 656.93753125 437.90621875A62.5625 62.5625 0 0 1 656.90625 563.0625M500.5 563.0625A62.5625 62.5625 0 1 1 500.5312812500001 437.90621875A62.5625 62.5625 0 0 1 500.5 563.0625M344.09375 563.0625A62.5625 62.5625 0 1 1 344.12503125 437.90621875A62.5625 62.5625 0 0 1 344.09375 563.0625M782.03125 813.3125H218.96875C150.15 813.3125 93.84375 757.00625 93.84375 688.1875V344.09375C93.84375 275.275 150.15 218.96875 218.96875 218.96875H375.375L498.5605625 123.1542812500001L622.6845625 218.96875H782.03125C850.85 218.96875 907.15625 275.275 907.15625 344.09375V688.1875C907.15625 757.00625 850.85 813.3125 782.03125 813.3125M782.03125 719.46875C798.9856875 719.46875 813.3125 705.1419375 813.3125 688.1875V344.09375C813.3125 327.1393125 798.9856875 312.8125 782.03125 312.8125H590.6838437499999L565.34603125 293.26171875L498.77953125 241.866625L432.9950625 293.04275L407.56340625 312.8125H218.96875C202.0143125 312.8125 187.6875 327.1393125 187.6875 344.09375V688.1875C187.6875 705.1419375 202.0143125 719.46875 218.96875 719.46875H782.03125" />
    <glyph glyph-name="checkmark-checkbox"
      unicode="&#xE00E;"
      horiz-adv-x="1001" d="M453.7658125 470.5325625L651.2130625000001 701.0753750000001C674.6114375000001 725.4434687500001 711.86740625 725.4434687500001 734.38990625 702.0763750000001C756.0678125000001 679.5538750000001 756.0678125000001 643.67428125 735.109375 621.9963750000001L455.61140625 302.3958437500001L266.51625 498.498A58.370812500000014 58.370812500000014 0 0 0 266.51625 579.36003125A57.08828125 57.08828125 0 0 0 348.81721875 579.36003125L453.7658125 470.50128125z" />
    <glyph glyph-name="checkmark-circle"
      unicode="&#xE00F;"
      horiz-adv-x="1001" d="M471.095625 342.2168750000001L721.345625 592.4668750000001A46.92187500000001 46.92187500000001 0 1 1 655.0293750000001 658.7831250000002L437.9375 441.7538125L345.9706250000001 533.658125A46.92187500000001 46.92187500000001 0 1 1 279.654375 467.3418750000001L404.779375 342.2168750000001A46.765468750000004 46.765468750000004 0 0 1 471.12690625 342.2168750000001M500.4374375 938.4375C258.6959375 938.4375 62.5625 742.366625 62.5625 500.5S258.6959375 62.5625 500.5 62.5625C742.366625 62.5625 938.4375 258.633375 938.4375 500.5S742.39790625 938.4375 500.5 938.4375M500.5 844.59375C690.2520625 844.59375 844.59375 690.2520625 844.59375 500.5S690.28334375 156.40625 500.5 156.40625C310.7479375 156.40625 156.40625 310.7479375000001 156.40625 500.5S310.7792187500001 844.59375 500.5 844.59375" />
    <glyph glyph-name="checkmark"
      unicode="&#xE010;"
      horiz-adv-x="1001" d="M416.0406250000001 305.9306250000001L232.7325 489.23875A46.92187500000001 46.92187500000001 0 1 0 299.0487500000001 555.5550000000001L416.0406250000001 438.59440625L683.1825 705.73628125A46.92187500000001 46.92187500000001 0 1 0 749.5613125 639.38875L416.0406250000001 305.9306250000001z" />
    <glyph glyph-name="chevron-down"
      unicode="&#xE011;"
      horiz-adv-x="1001" d="M491.115625 318.443125L232.7325 576.82625A46.92187500000001 46.92187500000001 0 1 0 299.04875 643.1424999999999L491.115625 451.1381875L683.1825 643.1737812499998A46.92187500000001 46.92187500000001 0 1 0 749.53003125 576.8262499999998L491.14690625 318.4431249999999z" />
    <glyph glyph-name="chevron-left"
      unicode="&#xE012;"
      horiz-adv-x="1001" d="M635.66628125 237.7375000000001C623.65428125 237.7375000000001 611.64228125 242.3045625000001 602.5081562500001 251.46996875L344.09375 509.85309375L602.476875 768.29878125A46.92187500000001 46.92187500000001 0 0 0 668.8244062499999 701.95125L476.7575312499999 509.884375L668.8244062499999 317.8175A46.9844375 46.9844375 0 0 0 635.6662812499999 237.7375000000001" />
    <glyph glyph-name="chevron-right"
      unicode="&#xE013;"
      horiz-adv-x="1001" d="M391.015625 782.03125C403.027625 782.03125 415.039625 777.4641875 424.1737500000001 768.29878125L682.556875 509.884375L424.1737500000001 251.46996875A46.92187500000001 46.92187500000001 0 0 0 357.82621875 317.8175L549.89309375 509.884375L357.82621875 701.91996875A46.9844375 46.9844375 0 0 0 390.98434375 782.03125z" />
    <glyph glyph-name="chevron-up"
      unicode="&#xE014;"
      horiz-adv-x="1001" d="M491.115625 688.1875L749.53003125 429.8043750000001A46.92187500000001 46.92187500000001 0 1 0 683.2137812499999 363.4881250000001L491.1469062499999 555.4924375L299.0800312499999 363.45684375A46.92187500000001 46.92187500000001 0 1 0 232.7012187499999 429.804375L491.115625 688.1875z" />
    <glyph glyph-name="clock"
      unicode="&#xE015;"
      horiz-adv-x="1001" d="M643.1424999999999 424.17375A46.92187500000001 46.92187500000001 0 1 0 576.82625 357.8575L467.3731562499999 467.2480312499999A46.89059375000001 46.89059375000001 0 0 0 457.1129062499999 482.6696874999999L456.9252187499999 483.3891562499998A46.57778125 46.57778125 0 0 0 453.578125 500.5V719.46875A46.92187500000001 46.92187500000001 0 1 0 547.421875 719.46875V519.92565625L643.1424999999999 424.2050312500001zM500.5 156.40625C310.71665625 156.40625 156.40625 310.7479375000001 156.40625 500.5S310.71665625 844.59375 500.5 844.59375S844.59375 690.2520625 844.59375 500.5S690.2520625 156.40625 500.5 156.40625zM500.5 938.4375C258.60209375 938.4375 62.5625 742.366625 62.5625 500.5C62.5625 258.60209375 258.633375 62.5625 500.5 62.5625C742.39790625 62.5625 938.4375 258.60209375 938.4375 500.5C938.4375 742.366625 742.39790625 938.4375 500.5 938.4375z" />
    <glyph glyph-name="cross"
      unicode="&#xE016;"
      horiz-adv-x="1001" d="M566.84753125 500.5L768.29878125 701.91996875A46.92187500000001 46.92187500000001 0 0 1 701.91996875 768.29878125L500.5 566.84753125L299.04875 768.29878125A46.95315625 46.95315625 0 0 1 232.7325 701.91996875L434.1837500000001 500.5L232.7325 299.0800312500001A46.92187500000001 46.92187500000001 0 0 1 299.0487500000001 232.70121875L500.5 434.1524687500001L701.9512500000001 232.70121875C711.0853750000001 223.5358125 723.0973749999999 218.96875 735.109375 218.96875S759.10209375 223.5358125 768.2674999999999 232.70121875A46.92187500000001 46.92187500000001 0 0 1 768.2674999999999 299.0800312500001L566.84753125 500.5z" />
    <glyph glyph-name="digipolis"
      unicode="&#xE017;"
      horiz-adv-x="1001" d="M1001 500.5C1001 224.0700000000001 776.93 0 500.5 0S0 224.0700000000001 0 500.5S224.07 1001 500.5 1001S1001 776.93 1001 500.5zM500.5 877.877C292.0995 877.877 123.123 708.9005 123.123 500.5C123.123 292.0609999999999 292.0995000000001 123.1230000000001 500.5 123.1230000000001C708.9005 123.1230000000001 877.877 292.0609999999999 877.877 500.5C877.877 708.9005 708.9005 877.877 500.5 877.877zM267.113 318.7415V584.3915C267.1515 589.0115 268.7685 630.0525 312.774 630.0525H570.6854999999999V757.372C570.9164999999999 765.1105 576.3834999999999 765.1105 578.424 765.1105H692.307C694.3475 765.1105 699.776 765.1105 700.0455 757.218V546.392C700.0455 541.772 698.3515 500.731 654.3845 500.731H396.4345V402.325H692.307C694.3475 402.325 699.776 402.325 700.0455 394.471V280.7805C699.776 273.0419999999999 694.3475 273.0419999999999 692.3455 273.0419999999999H312.7355C268.73 273.0419999999999 267.113 314.0829999999999 267.0745 318.7415z" />
    <glyph glyph-name="document"
      unicode="&#xE018;"
      horiz-adv-x="1001" d="M682.96353125 813.3125C737.45546875 813.3125 782.03125 767.8295625000001 782.03125 712.2740625V257.4446875C782.03125 201.9204687500001 737.45546875 156.40625 682.96353125 156.40625H286.75521875C232.26328125 156.40625 187.6875 201.92046875 187.6875 257.4446875V712.2740625C187.6875 767.79828125 232.26328125 813.3125 286.75521875 813.3125H682.96353125zM682.96353125 737.5180312499999H286.75521875A25.337812500000002 25.337812500000002 0 0 1 261.98046875 712.24278125V257.4759687500001A25.337812500000002 25.337812500000002 0 0 1 286.75521875 232.2007187500001H682.96353125A25.337812500000002 25.337812500000002 0 0 1 707.73828125 257.4759687500001V712.24278125A25.337812500000002 25.337812500000002 0 0 1 682.96353125 737.5180312499999zM528.18390625 350.13103125A37.5375 37.5375 0 0 1 491.0530625 388.0126249999999H367.241875A37.5375 37.5375 0 0 1 330.07975 350.13103125A37.5375 37.5375 0 0 1 367.241875 312.21815625H491.0530625A37.5375 37.5375 0 0 1 528.1839062500001 350.13103125zM639.6389999999999 609.0772187499999A37.5375 37.5375 0 0 1 602.476875 646.9900937499999H367.241875A37.5375 37.5375 0 0 1 330.07975 609.0772187499999A37.5375 37.5375 0 0 1 367.241875 571.195625H602.476875A37.5375 37.5375 0 0 1 639.6389999999999 609.0772187499999zM602.476875 440.6589687499999H367.241875A37.5375 37.5375 0 0 0 330.07975 478.5405624999999A37.5375 37.5375 0 0 0 367.241875 516.4534374999998H602.476875A37.5375 37.5375 0 0 0 639.6389999999999 478.5405624999999A37.5375 37.5375 0 0 0 602.476875 440.6589687499999z" />
    <glyph glyph-name="download"
      unicode="&#xE019;"
      horiz-adv-x="1001" d="M703.828125 218.96875H566.8475312500001L737.0175312500002 389.10746875A46.9844375 46.9844375 0 0 1 737.0175312500002 455.48628125A46.9844375 46.9844375 0 0 1 670.6387187500001 455.48628125L563.0625 347.87878125V766.390625A46.92187500000001 46.92187500000001 0 1 1 469.21875 766.390625V347.8787812500001L361.64253125 455.4862812500002A46.9844375 46.9844375 0 0 1 295.26371875 455.4862812500002A46.9844375 46.9844375 0 0 1 295.26371875 389.1074687500001L465.43371875 218.96875H328.453125A46.92187500000001 46.92187500000001 0 1 1 328.453125 125.125H703.828125A46.92187500000001 46.92187500000001 0 1 1 703.828125 218.96875" />
    <glyph glyph-name="envelope"
      unicode="&#xE01A;"
      horiz-adv-x="1001" d="M765.8275625 574.54271875L674.0170937500001 494.9945000000001L760.4471875 408.5644062500001A46.92187500000001 46.92187500000001 0 1 0 694.0996562500001 342.2168750000001L602.94609375 433.3704375000001L531.2181875000001 371.2145937500002A46.734187500000004 46.734187500000004 0 0 0 469.7505312500001 371.2145937500002L398.0226250000001 433.3704375000002L306.8690625000001 342.2168750000001A46.79675 46.79675 0 0 0 240.52153125 342.2168750000001A46.92187500000001 46.92187500000001 0 0 0 240.52153125 408.5644062500001L326.951625 494.9945L235.14115625 574.54271875A46.92187500000001 46.92187500000001 0 1 0 296.6088125 645.4573125L500.5 468.74953125L704.35990625 645.4573125A46.92187500000001 46.92187500000001 0 0 0 765.8275625 574.54271875zM844.59375 281.53125C844.59375 264.5768125 830.2669375 250.25 813.3125 250.25H187.6875C170.7330625 250.25 156.40625 264.5768125 156.40625 281.53125V719.46875C156.40625 736.4231875 170.7330625 750.75 187.6875 750.75H813.3125C830.2669375 750.75 844.59375 736.4231875 844.59375 719.46875V281.53125zM813.3125 844.59375H187.6875C118.83746875 844.59375 62.5625 788.2875 62.5625 719.46875V281.53125C62.5625 212.7125 118.83746875 156.40625 187.6875 156.40625H813.3125C882.13125 156.40625 938.4375 212.7125 938.4375 281.53125V719.46875C938.4375 788.2875 882.13125 844.59375 813.3125 844.59375z" />
    <glyph glyph-name="euro"
      unicode="&#xE01B;"
      horiz-adv-x="1001" d="M225.099875 458.4267187500001A415.1021875 415.1021875 0 0 0 225.099875 542.57328125H167.041875C143.89375 542.57328125 125.125 561.40459375 125.125 584.6465625000001C125.125 607.85725 143.89375 626.6885625 167.041875 626.6885625H242.7425C295.3575625000001 789.5387499999999 447.0403437500001 907.15625 625.9378125000001 907.15625C669.7941250000001 907.15625 712.7120000000001 900.0866875 753.50275 886.35421875C775.3683437500001 879.003125 787.161375 855.1668125 779.87284375 833.1448125A41.6040625 41.6040625 0 0 0 727.1326562500001 806.55575A316.6288125 316.6288125 0 0 1 625.9690937500001 823.0096875C493.8370937500001 823.0096875 380.4112812500001 742.1163750000001 331.7376562500001 626.6885625H529.9982187500001C553.14634375 626.6885625 571.91509375 607.85725 571.91509375 584.6465625000001C571.91509375 561.40459375 553.14634375 542.57328125 529.9982187500001 542.57328125H309.02746875A328.453125 328.453125 0 0 1 309.02746875 458.4267187500001H529.99821875C553.1463437499999 458.4267187500001 571.91509375 439.59540625 571.91509375 416.3534375000001C571.91509375 393.1427500000001 553.1463437499999 374.3114375 529.99821875 374.3114375H331.73765625C380.41128125 258.883625 493.8370937499999 177.9903125000001 625.9690937499998 177.9903125000001C659.8466874999998 177.9903125000001 692.9735312499998 183.3081250000001 724.5050312499998 193.59965625A41.6040625 41.6040625 0 0 0 777.0262499999998 166.541375A42.13584375 42.13584375 0 0 0 750.1869374999998 113.5509375C710.3971874999999 100.5379375000001 668.6054374999998 93.8437500000001 625.9690937499997 93.8437500000001C447.0403437499998 93.8437500000001 295.3575624999998 211.4612500000002 242.7737812499998 374.3114375H167.041875C143.89375 374.3114375 125.125 393.1427500000001 125.125 416.3534375C125.125 439.5954062499999 143.89375 458.42671875 167.041875 458.42671875H225.099875z" />
    <glyph glyph-name="exclamation-circle"
      unicode="&#xE01C;"
      horiz-adv-x="1001" d="M563.0625 312.8125A62.5625 62.5625 0 1 0 437.90621875 312.84378125A62.5625 62.5625 0 0 0 563.0625 312.8125M453.578125 453.578125V735.109375A46.92187500000001 46.92187500000001 0 1 0 547.421875 735.109375V453.578125A46.92187500000001 46.92187500000001 0 1 0 453.578125 453.578125M500.5 156.40625C310.7792187500001 156.40625 156.40625 310.77921875 156.40625 500.5S310.7792187500001 844.59375 500.5 844.59375S844.59375 690.2207812500001 844.59375 500.5S690.2207812500001 156.40625 500.5 156.40625M500.5 938.4375C258.633375 938.4375 62.5625 742.366625 62.5625 500.5S258.633375 62.5625 500.5 62.5625S938.4375 258.633375 938.4375 500.5S742.366625 938.4375 500.5 938.4375" />
    <glyph glyph-name="exclamation"
      unicode="&#xE01D;"
      horiz-adv-x="1001" d="M516.140625 373.3730000000001A46.92187500000001 46.92187500000001 0 0 0 469.21875 420.2948750000001V828.953125A46.92187500000001 46.92187500000001 0 1 0 563.0625 828.953125V420.2948750000001A46.92187500000001 46.92187500000001 0 0 0 516.140625 373.3730000000001zM594.34375 215.93446875A78.203125 78.203125 0 1 0 437.9375 215.93446875A78.203125 78.203125 0 0 0 594.34375 215.93446875z" />
    <glyph glyph-name="external-link"
      unicode="&#xE01E;"
      horiz-adv-x="1001" d="M658.81440625 705.705A46.92187500000001 46.92187500000001 0 1 1 592.4668750000001 639.3887500000001L700.04309375 531.78125H281.53125C178.052875 531.78125 93.84375 447.5721250000001 93.84375 344.09375S178.052875 156.40625 281.53125 156.40625H359.734375A46.92187500000001 46.92187500000001 0 1 1 359.734375 250.25H281.53125C229.7920625 250.25 187.6875 292.3545625000001 187.6875 344.09375S229.7920625 437.9375 281.53125 437.9375H700.0430937499999L592.466875 330.33A46.92187500000001 46.92187500000001 0 1 1 658.8144062499999 264.01375L879.6913124999999 484.8593749999999L658.8144062499999 705.7049999999999z" />
    <glyph glyph-name="eye-closed"
      unicode="&#xE01F;"
      horiz-adv-x="1001" d="M737.51803125 635.635L801.51946875 699.6364375A485.5788437499999 485.5788437499999 0 0 0 931.64946875 517.0790625L938.4375 500.5L931.64946875 483.9209374999999C858.8892812500001 306.08703125 690.47103125 187.6875 500.5 187.6875C438.8759375 187.6875 379.504125 200.1374375 324.949625 223.0353124999999L394.8319375 292.94890625C428.553125 282.56353125 464.05734375 277.05803125 500.5 277.05803125C646.1455 277.05803125 776.99496875 365.08346875 839.49490625 500.5A394.394 394.394 0 0 1 737.5180312499999 635.635zM592.62328125 711.9612500000001A358.8585 358.8585 0 0 1 500.5 723.9106875C354.8545000000001 723.9106875 224.00503125 635.88525 161.50509375 500.4687187499999A395.30115625 395.30115625 0 0 1 254.22271875 373.498125L190.28384375 309.5592499999999A486.20446874999993 486.20446874999993 0 0 0 69.35053125 483.8896562499999L62.5625 500.5L69.35053125 517.0790625C142.11071875 694.91296875 310.52896875 813.3125 500.5 813.3125C557.4944375 813.3125 612.51815625 802.676875 663.63171875 782.9696875L592.62328125 711.9612500000001zM479.07234375 377.1893125000001L623.8106875 521.9276562499999A125.125 125.125 0 0 0 479.103625 377.2205937499999zM375.5314062500001 494.8068124999999A125.125 125.125 0 0 0 506.22446875 625.499875L375.500125 494.8068124999999zM149.36796875 202.3271249999999L807.52546875 860.4533437499999A31.28125 31.28125 0 0 0 851.725875 816.2216562499999L193.6309375 158.12671875A31.28125 31.28125 0 0 0 149.39925 202.35840625z" />
    <glyph glyph-name="facebook"
      unicode="&#xE020;"
      horiz-adv-x="1001" d="M547.1090624999999 218.96875V475.7878125H639.38875L653.1524999999999 575.8878125H547.1090624999999V639.79540625C547.1090624999999 668.7931249999999 555.7426875 688.53159375 600.1933437499999 688.53159375L656.90625 688.5628750000001V778.0898125A811.2792187499999 811.2792187499999 0 0 1 574.29246875 782.03125C492.52328125 782.03125 436.5611250000001 735.39090625 436.5611250000001 649.7115625V575.8878125H344.09375V475.7878125H436.561125V218.96875H547.1403437499999z" />
    <glyph glyph-name="fancyback"
      unicode="&#xE021;"
      horiz-adv-x="1001" d="M314.72065625 170.13871875L93.84375 391.015625L314.72065625 611.8612499999999A46.79675 46.79675 0 0 0 381.0681875 611.8612499999999A46.92187500000001 46.92187500000001 0 0 0 381.0681875 545.51371875L273.49196875 437.9375H692.0038125C743.7429999999999 437.9375 785.8475625 480.0107812499999 785.8475625 531.78125C785.8475625 583.5204375000001 743.7429999999999 625.625 692.0038125 625.625H613.8006875A46.92187500000001 46.92187500000001 0 1 0 613.8006875 719.46875H692.0038125C795.4821875 719.46875 879.6913125 635.2596249999999 879.6913125 531.78125C879.6913125 428.27159375 795.4821875 344.09375 692.0038125 344.09375H273.49196875L381.0681875 236.48625A46.92187500000001 46.92187500000001 0 1 0 314.72065625 170.13871875z" />
    <glyph glyph-name="favicon"
      unicode="&#xE022;"
      horiz-adv-x="1001" d="M934.4335 0H66.5665C30.03 0 0 42.1045625 0 93.84375V906.8434375C0 958.5200625 30.03 1001 66.5665 1001H934.4335C970.97 1001 1001 958.55134375 1001 906.8434375V93.84375C1001 42.1045625 970.97 0 934.4335 0zM548.422875 778.49646875C609.26490625 789.2259375 655.9678124999999 802.3640625 690.53359375 823.16609375L638.98209375 920.92C584.17734375 875.96884375 530.4361562500001 836.11653125 413.9760625 818.5051875C287.5372500000001 796.20165625 211.68021875 709.333625 231.2935625 598.0975000000001C242.71121875 533.4704375000001 277.18315625 493.493 345.9706250000001 470.31359375C313.8760625000001 441.1281875 297.26571875 401.9327812500001 303.6158125 365.83421875C313.0001875 312.5935312500001 364.77065625 274.6493750000001 470.2823125 293.26171875L544.45015625 306.33728125C597.69084375 315.72165625 627.03265625 299.3615625 633.0699375 265.139875C639.4513125 229.0100312499999 619.2749062500001 198.9800312499999 526.0880625 182.557375C430.08590625 165.63421875 405.4675625 182.8701875000001 397.0841875 230.38640625L276.36984375 209.1151562499999C294.13759375 108.3269687499999 355.07346875 57.33853125 539.50771875 89.83975C707.7695624999999 119.494375 785.2532187500001 196.8841875000001 767.3290625000001 298.6108125C752.59559375 382.2568749999999 668.668 430.17975 554.6165625 410.0659062499999L477.57084375 396.4898437499999C428.14646875 387.7936562499999 416.76009375 402.43328125 413.75709375 419.5441249999999C411.37971875 432.8699374999998 416.82265625 446.5398437499998 426.8952187500001 456.1431874999998C445.7578125 454.5791249999997 465.12090625 456.0493437499998 486.9865 459.8969374999998C615.3021875000001 482.5132812499997 681.64971875 567.7234062499998 664.38246875 665.6337187499998C653.1525 729.3223437499998 615.08321875 761.8548437499999 548.422875 778.4964687499998zM365.990625 623.8106875000001C356.26215625 678.9282499999999 381.41228125 719.6564375 432.77609375 728.69671875C488.863375 738.58159375 521.42715625 714.93296875 532.0002187499999 655.029375C542.8860937499999 593.24890625 520.0820624999999 555.89909375 465.9029375 546.3583125C414.6016874999999 537.28675 376.21959375 565.81525 365.990625 623.8106875000001z" />
    <glyph glyph-name="fax"
      unicode="&#xE023;"
      horiz-adv-x="1001" d="M844.59375 418.38671875C844.59375 435.3411562500001 830.2669375 449.66796875 813.3125 449.66796875H797.671875V391.015625A46.92187500000001 46.92187500000001 0 0 0 750.75 344.09375H250.25A46.92187500000001 46.92187500000001 0 0 0 203.328125 391.015625V449.66796875H187.6875C170.7330625 449.66796875 156.40625 435.3411562500001 156.40625 418.38671875V199.41796875C156.40625 182.46353125 170.7330625 168.13671875 187.6875 168.13671875H813.3125C830.2669375 168.13671875 844.59375 182.46353125 844.59375 199.41796875V418.38671875zM297.171875 437.9375H703.828125V844.59375H297.171875V437.9375zM938.4375 418.38671875V199.41796875C938.4375 130.59921875 882.13125 74.29296875 813.3125 74.29296875H187.6875C118.86875 74.29296875 62.5625 130.59921875 62.5625 199.41796875V418.38671875C62.5625 487.20546875 118.86875 543.51171875 187.6875 543.51171875H203.328125V891.515625A46.92187500000001 46.92187500000001 0 0 0 250.25 938.4375H750.75A46.92187500000001 46.92187500000001 0 0 0 797.671875 891.515625V543.51171875H813.3125C882.13125 543.51171875 938.4375 487.20546875 938.4375 418.38671875zM257.10059375 305.96190625A46.92187500000001 46.92187500000001 0 1 1 257.0693125 212.1494375A46.92187500000001 46.92187500000001 0 0 1 257.10059375 305.96190625zM609.984375 615.8339687499999H391.015625A46.92187500000001 46.92187500000001 0 1 1 391.015625 522.0215H609.984375A46.92187500000001 46.92187500000001 0 1 1 609.984375 615.8339687499999zM656.90625 715.55859375A46.92187500000001 46.92187500000001 0 0 0 609.984375 668.63671875H391.015625A46.92187500000001 46.92187500000001 0 1 0 391.015625 762.48046875H609.984375A46.92187500000001 46.92187500000001 0 0 0 656.90625 715.55859375z" />
    <glyph glyph-name="filter"
      unicode="&#xE024;"
      horiz-adv-x="1001" d="M828.953125 750.75H203.328125A46.92187500000001 46.92187500000001 0 1 1 203.328125 656.90625H828.953125A46.92187500000001 46.92187500000001 0 1 1 828.953125 750.75M703.828125 531.78125H328.453125A46.92187500000001 46.92187500000001 0 1 1 328.453125 437.9375H703.828125A46.92187500000001 46.92187500000001 0 1 1 703.828125 531.78125M625.625 265.890625A46.92187500000001 46.92187500000001 0 0 0 578.703125 218.96875H453.578125A46.92187500000001 46.92187500000001 0 1 0 453.578125 312.8125H578.703125A46.92187500000001 46.92187500000001 0 0 0 625.625 265.890625" />
    <glyph glyph-name="flickr"
      unicode="&#xE025;"
      horiz-adv-x="1001" d="M345.1573125000001 625.625C414.8519375 625.625 471.345875 569.60028125 471.345875 500.5C471.345875 431.3684375000001 414.8519375 375.375 345.1573125000001 375.375C275.4626875 375.375 218.96875 431.3684375000001 218.96875 500.5C218.96875 569.60028125 275.4626875 625.625 345.1573125 625.625zM782.03125 500.5C782.03125 431.3684375000001 725.5373125 375.375 655.8426875 375.375C586.1480625 375.375 529.654125 431.3684375000001 529.654125 500.5C529.654125 569.60028125 586.1480625000002 625.625 655.8426875 625.625C725.5373125 625.625 782.03125 569.60028125 782.03125 500.5z" />
    <glyph glyph-name="gentse-selectie-en"
      unicode="&#xE026;"
      horiz-adv-x="7529.777448071216" d="M2973.296735905044 0H7529.777448071216V1001H2.9703264094954V0H2973.296735905044zM2973.296735905044 941.5934718100888H7470.370919881306V59.406528189911H2973.296735905044V941.5934718100888zM644.5608308605337 460.4005934718101C644.5608308605337 297.0326409495549 570.302670623145 225.7448071216618 448.5192878338275 225.7448071216618C329.7062314540056 225.7448071216618 246.5370919881303 297.0326409495549 246.5370919881303 460.4005934718101V528.7181008902078C246.5370919881303 700.9970326409496 329.7062314540056 769.3145400593471 448.5192878338276 769.3145400593471C561.3916913946584 769.3145400593471 626.7388724035604 706.9376854599407 641.5905044510382 597.0356083086053H537.629080118694C528.7181008902073 644.5608308605341 499.0148367952519 677.2344213649851 445.5489614243321 677.2344213649851C383.1721068249255 677.2344213649851 350.4985163204745 635.6498516320474 350.4985163204745 534.6587537091988V460.4005934718101C350.4985163204745 359.4094955489615 383.1721068249255 317.8249258160237 445.548961424332 317.8249258160237C504.9554896142429 317.8249258160237 531.6884272997029 356.4391691394659 537.629080118694 418.8160237388724H448.5192878338276V510.8961424332344H641.5905044510382V460.4005934718101H644.5608308605338zM1194.0712166172102 231.6854599406529H1087.1394658753704V460.4005934718101H902.9792284866464V231.6854599406529H796.0474777448067V763.373887240356H902.9792284866464V552.480712166172H1087.1394658753704V763.373887240356H1194.0712166172102V231.6854599406529zM1690.1157270029669 671.293768545994H1467.3412462908007V552.4807121661721H1666.3531157270027V460.4005934718101H1467.3412462908007V320.7952522255194H1690.1157270029669V228.7151335311572H1357.4391691394653V763.373887240356H1687.1454005934713V671.293768545994H1690.1157270029669zM2221.8041543026698 231.6854599406529H2132.6943620178035L1924.771513353115 558.4213649851632V231.6854599406529H1823.7804154302664V763.373887240356H1912.8902077151329L2120.813056379821 430.6973293768546V763.373887240356H2221.8041543026698V231.6854599406529zM2741.6112759643906 671.293768545994H2596.065281899109V231.6854599406529H2489.1335311572693V671.293768545994H2343.587537091987V763.373887240356H2741.6112759643906V671.293768545994zM3412.905044510385 543.5697329376854C3341.6172106824915 561.3916913946587 3308.9436201780404 579.213649851632 3308.9436201780404 620.7982195845698C3308.9436201780404 656.4421364985162 3335.6765578635004 680.2047477744807 3383.2017804154293 680.2047477744807C3436.667655786349 680.2047477744807 3463.400593471809 662.3827893175073 3487.1632047477733 626.7388724035608L3567.3620178041533 683.1750741839762C3528.747774480711 742.5816023738871 3466.3709198813044 769.3145400593471 3380.2314540059338 769.3145400593471C3255.477744807121 769.3145400593471 3199.0415430267053 703.9673590504451 3199.0415430267053 620.7982195845698C3199.0415430267053 534.6587537091988 3252.5074183976253 484.1632047477744 3356.4688427299693 454.459940652819C3442.6083086053404 430.6973293768546 3463.400593471809 412.8753709198814 3463.400593471809 374.2611275964392C3463.400593471809 341.5875370919881 3442.60830860534 314.8545994065282 3380.2314540059338 314.8545994065282C3326.765578635014 314.8545994065282 3294.0919881305626 332.6765578635016 3264.388724035607 368.3204747774481L3181.219584569732 311.8842729970328C3228.7448071216604 249.5074183976262 3294.0919881305626 225.7448071216619 3386.172106824925 225.7448071216619C3510.925816023738 225.7448071216619 3570.332344213649 294.0623145400596 3570.332344213649 380.2017804154304C3573.3026706231444 475.2522255192879 3522.8071216617204 516.8367952522257 3412.905044510385 543.5697329376856zM3712.908011869435 231.6854599406529H4045.584569732936V323.7655786350149H3822.8100890207697V463.3709198813057H4021.821958456971V552.4807121661721H3822.8100890207697V671.293768545994H4045.584569732936V763.373887240356H3712.908011869434V231.685459940653zM4286.181008902076 763.373887240356H4179.249258160236V231.6854599406529H4508.955489614243V323.7655786350149H4286.181008902076V763.3738872403561zM4627.768545994064 231.6854599406529H4957.47477744807V323.7655786350149H4734.700296735904V463.3709198813057H4933.712166172105V552.4807121661721H4734.700296735904V671.293768545994H4957.47477744807V763.373887240356H4627.768545994064V231.685459940653zM5278.270029673589 680.2047477744807C5331.735905044509 680.2047477744807 5358.468842729969 650.5014836795251 5370.350148367951 600.0059347181009H5474.311572700296C5456.489614243323 715.8486646884272 5385.201780415429 772.2848664688427 5281.240356083085 772.2848664688427C5162.427299703263 772.2848664688427 5079.2581602373875 700.9970326409496 5079.2581602373875 537.6290801186942V463.3709198813056C5079.2581602373875 300.0029673590504 5162.427299703263 228.7151335311571 5281.240356083085 228.7151335311571C5391.1424332344195 228.7151335311571 5456.489614243323 282.181008902077 5474.311572700296 400.994065281899H5373.320474777447C5361.439169139464 347.5281899109791 5334.706231454004 320.7952522255192 5281.240356083085 320.7952522255192C5218.863501483678 320.7952522255192 5186.1899109792275 365.3501483679525 5186.1899109792275 463.3709198813056V537.6290801186942C5183.219584569732 638.6201780415429 5215.893175074183 680.2047477744807 5278.270029673589 680.2047477744807zM5551.5400593471795 671.293768545994H5700.056379821957V231.6854599406528H5806.988130563796V671.293768545994H5952.534124629079V763.373887240356H5551.5400593471795V671.293768545994zM6080.2581602373875 763.373887240356H6187.1899109792275V234.6557863501484H6080.2581602373875V763.373887240356zM6546.599406528188 769.3145400593471C6427.786350148366 769.3145400593471 6344.617210682491 698.026706231454 6344.617210682491 534.6587537091988V460.4005934718101C6344.617210682491 297.0326409495549 6427.786350148366 225.7448071216618 6546.599406528188 225.7448071216618S6751.551928783381 297.0326409495549 6751.551928783381 460.4005934718101V534.6587537091988C6748.581602373886 698.026706231454 6665.412462908011 769.3145400593471 6546.599406528188 769.3145400593471zM6641.649851632045 460.4005934718101C6641.649851632045 359.4094955489615 6608.976261127595 317.8249258160237 6546.599406528188 317.8249258160237S6451.5489614243315 359.4094955489614 6451.5489614243315 460.4005934718101V534.6587537091988C6451.5489614243315 635.6498516320474 6484.222551928782 677.2344213649851 6546.599406528188 677.2344213649851S6641.649851632045 635.6498516320474 6641.649851632045 534.6587537091988V460.4005934718101zM7194.130563798218 430.6973293768546L6989.178041543025 763.373887240356H6900.068249258158V231.6854599406529H7001.059347181007V561.3916913946587L7208.982195845694 231.6854599406529H7298.091988130562V763.373887240356H7194.130563798218V430.6973293768546z" />
    <glyph glyph-name="gentse-selectie-fr"
      unicode="&#xE027;"
      horiz-adv-x="8997.118694362016" d="M4571.33234421365 1001H2.9703264094954V0H8997.118694362016V1001H4571.332344213649zM929.712166172107 902.9792284866468H1042.5845697329378L962.3857566765578 804.9584569732938H867.3353115727003L929.7121661721068 902.9792284866468zM442.5786350148371 225.7448071216618C350.4985163204751 225.7448071216618 285.151335311573 252.4777448071217 237.6261127596443 311.8842729970327L320.7952522255196 368.320474777448C350.4985163204751 332.6765578635015 380.2017804154306 314.8545994065281 436.637982195846 314.8545994065281C499.0148367952525 314.8545994065281 519.8071216617213 341.587537091988 519.8071216617213 374.2611275964391C519.8071216617213 409.9050445103857 496.0445103857569 430.6973293768545 412.8753709198816 454.4599406528189C308.9139465875374 481.1928783382788 255.4480712166176 531.6884272997031 255.4480712166176 620.7982195845696C255.4480712166176 703.9673590504449 311.884272997033 769.314540059347 436.637982195846 769.314540059347C519.8071216617213 769.314540059347 585.1543026706233 739.6112759643916 623.7685459940656 683.1750741839761L543.5697329376858 626.7388724035607C519.8071216617213 662.3827893175072 493.0741839762615 680.2047477744806 439.6083086053415 680.2047477744806C392.0830860534128 680.2047477744806 365.3501483679529 656.4421364985162 365.3501483679529 620.7982195845696C365.3501483679529 579.2136498516319 398.0237388724039 561.3916913946587 469.311572700297 543.5697329376853C579.2136498516323 516.8367952522254 629.7091988130566 475.2522255192877 629.7091988130566 380.2017804154302C623.7685459940656 294.0623145400594 567.33234421365 225.7448071216617 442.578635014837 225.7448071216617zM1096.0504451038578 671.293768545994H873.2759643916917V552.4807121661721H1072.2878338278936V460.4005934718101H873.2759643916918V320.7952522255194H1096.050445103858V228.7151335311572H766.3442136498521V763.373887240356H1096.050445103858V671.293768545994zM1562.391691394659 231.6854599406529H1232.685459940653V763.373887240356H1339.6172106824927V323.7655786350148H1562.391691394659V231.6854599406528zM2010.9109792284864 671.293768545994H1788.1364985163204V552.4807121661721H1987.1483679525224V460.4005934718101H1788.1364985163204V320.7952522255194H2010.9109792284864V228.7151335311572H1678.2344213649849V763.373887240356H2007.9406528189909L2010.910979228486 671.293768545994zM2331.706231454006 317.8249258160238C2385.1721068249253 317.8249258160238 2411.9050445103853 344.5578635014837 2423.7863501483675 398.0237388724037H2524.7774480712164C2506.955489614243 279.2106824925817 2441.608308605341 225.7448071216618 2331.706231454006 225.7448071216618C2212.8931750741835 225.7448071216618 2129.7240356083084 297.0326409495549 2129.7240356083084 460.4005934718101V534.6587537091988C2129.7240356083084 698.026706231454 2212.8931750741835 769.3145400593471 2331.706231454006 769.3145400593471C2435.6676557863498 769.3145400593471 2506.955489614243 712.8783382789318 2524.7774480712164 597.0356083086053H2420.816023738872C2411.9050445103853 647.5311572700297 2382.20178041543 677.2344213649851 2328.73590504451 677.2344213649851C2266.359050445104 677.2344213649851 2233.6854599406524 635.6498516320474 2233.6854599406524 534.6587537091988V460.4005934718101C2236.655786350148 362.379821958457 2269.329376854599 317.8249258160237 2331.706231454006 317.8249258160237zM3002.9999999999995 671.2937685459941H2857.4540059347173V231.685459940653H2750.5222551928778V671.2937685459942H2604.976261127596V763.3738872403562H3002.9999999999995V671.2937685459942zM3237.655786350148 231.685459940653H3130.7240356083084V763.3738872403561H3237.655786350148V231.685459940653zM3802.017804154302 460.4005934718102C3802.017804154302 297.032640949555 3718.848664688427 225.7448071216618 3597.0652818991093 225.7448071216618C3478.252225519287 225.7448071216618 3395.083086053412 297.0326409495549 3395.083086053412 460.4005934718101V534.6587537091988C3395.083086053412 698.026706231454 3478.252225519287 769.3145400593471 3597.0652818991093 769.3145400593471S3802.017804154302 698.026706231454 3802.017804154302 534.6587537091988V460.4005934718101zM4348.557863501484 231.685459940653H4259.448071216617L4051.525222551929 558.4213649851633V231.685459940653H3950.534124629079V763.3738872403561H4039.643916913946L4247.566765578635 430.6973293768547V763.3738872403561H4348.557863501484V231.685459940653zM8937.712166172105 59.4065281899111H4630.73887240356V941.593471810089H8937.712166172105V59.4065281899111zM3597.0652818991084 680.2047477744807C3534.688427299702 680.2047477744807 3502.0148367952506 638.6201780415431 3502.0148367952506 537.6290801186944V463.3709198813057C3502.0148367952506 362.379821958457 3534.6884272997017 320.7952522255194 3597.0652818991084 320.7952522255194S3692.115727002966 362.379821958457 3692.115727002966 463.3709198813057V537.6290801186944C3695.0860534124618 638.6201780415431 3659.442136498515 680.2047477744807 3597.0652818991084 680.2047477744807zM5120.842729970325 225.7448071216618C5239.655786350147 225.7448071216618 5316.884272997031 297.0326409495549 5316.884272997031 460.4005934718101V507.9258160237389H5123.81305637982V415.8456973293769H5212.922848664687C5206.982195845696 353.4688427299704 5183.2195845697315 314.8545994065282 5120.842729970325 314.8545994065282S5025.7922848664675 356.4391691394659 5025.7922848664675 457.4302670623146V531.6884272997033C5025.7922848664675 632.679525222552 5058.465875370919 674.2640949554897 5120.842729970325 674.2640949554897C5174.308605341245 674.2640949554897 5204.011869436201 641.5905044510387 5212.922848664687 594.0652818991098H5316.884272997031C5302.032640949554 700.9970326409496 5233.7151335311555 766.3442136498517 5123.81305637982 766.3442136498517C5004.999999999998 766.3442136498517 4921.830860534123 695.0563798219584 4921.830860534123 525.7477744807122V457.4302670623146C4918.8605341246275 297.0326409495549 5002.029673590502 225.7448071216618 5120.842729970324 225.7448071216618zM5545.599406528189 332.6765578635016H5723.818991097922L5756.492581602372 231.685459940653H5872.3353115726995L5685.204747774479 763.3738872403561H5581.243323442135L5397.0830860534115 234.6557863501485H5512.925816023738L5545.599406528189 332.6765578635016zM5634.709198813055 611.8872403560831L5694.115727002966 424.7566765578636H5575.302670623144L5634.709198813055 611.8872403560831zM6083.228486646883 561.3916913946589L6288.181008902076 231.685459940653H6377.290801186942V763.3738872403561H6276.299703264093V430.6973293768547L6068.376854599405 763.3738872403561H5979.267062314539V231.685459940653H6083.228486646883V561.3916913946589zM6644.620178041542 231.685459940653H6751.551928783381V671.2937685459942H6897.097922848663V763.3738872403562H6499.0741839762595V671.2937685459942H6644.620178041542V231.685459940653zM7197.100890207714 225.7448071216619C7315.913946587536 225.7448071216619 7402.0534124629075 297.032640949555 7402.0534124629075 460.4005934718102V534.658753709199C7402.0534124629075 698.0267062314542 7318.88427299703 769.3145400593473 7197.100890207714 769.3145400593473C7078.2878338278915 769.3145400593473 6995.118694362016 698.0267062314542 6995.118694362016 534.658753709199V460.4005934718102C6995.118694362016 297.0326409495551 7078.2878338278915 225.744807121662 7197.100890207714 225.744807121662zM7102.050445103857 534.6587537091989C7102.050445103857 635.6498516320476 7134.7240356083075 677.2344213649852 7197.100890207714 677.2344213649852S7292.1513353115715 635.6498516320476 7292.1513353115715 534.6587537091989V460.4005934718102C7292.1513353115715 359.4094955489616 7259.47774480712 317.8249258160238 7197.100890207714 317.8249258160238S7102.050445103857 359.4094955489615 7102.050445103857 460.4005934718102V534.6587537091989zM7559.4807121661715 763.3738872403562H7666.412462908012V234.6557863501486H7559.480712166172V763.3738872403562zM8010.970326409494 317.8249258160239C7957.504451038574 317.8249258160239 7924.830860534124 335.6468842729973 7895.12759643917 371.2908011869438L7811.958456973292 314.8545994065285C7859.483679525222 252.4777448071219 7924.830860534124 228.7151335311576 8016.910979228484 228.7151335311576C8141.664688427298 228.7151335311576 8201.071216617209 297.0326409495553 8201.071216617209 383.1721068249261C8201.071216617209 478.2225519287836 8150.575667655786 519.8071216617212 8040.67359050445 546.5400593471812C7969.385756676556 564.3620178041546 7936.712166172106 582.1839762611278 7936.712166172106 623.7685459940656C7936.712166172106 659.412462908012 7963.445103857564 683.1750741839764 8010.970326409494 683.1750741839764C8064.436201780414 683.1750741839764 8091.169139465874 665.3531157270031 8114.931750741838 629.7091988130566L8195.130563798219 686.145400593472C8156.516320474774 745.551928783383 8094.13946587537 772.2848664688429 8007.999999999998 772.2848664688429C7883.246290801186 772.2848664688429 7826.81008902077 706.9376854599409 7826.81008902077 623.7685459940656C7826.81008902077 537.6290801186946 7880.27596439169 487.1335311572702 7984.237388724034 457.4302670623148C8070.3768545994035 433.6676557863504 8091.169139465874 415.8456973293771 8091.169139465874 377.231454005935C8094.13946587537 344.5578635014839 8073.3471810088995 317.824925816024 8010.970326409494 317.824925816024zM8670.382789317506 323.765578635015H8447.60830860534V463.3709198813058H8649.590504451036V552.4807121661722H8447.60830860534V671.2937685459942H8670.382789317506V763.3738872403562H8340.676557863499V231.685459940653H8670.382789317506V323.765578635015z" />
    <glyph glyph-name="gentse-selectie-nl"
      unicode="&#xE028;"
      horiz-adv-x="7381.261127596438" d="M3383.20178041543 0H7384.231454005932V1001H2.9703264094954V0H3383.2017804154298zM3383.20178041543 941.5934718100888H7324.824925816022V59.406528189911H3383.20178041543V941.5934718100888zM644.5608308605341 460.4005934718101C644.5608308605341 297.0326409495549 570.3026706231454 225.7448071216618 448.519287833828 225.7448071216618C329.706231454006 225.7448071216618 246.5370919881307 297.0326409495549 246.5370919881307 460.4005934718101V528.7181008902078C246.5370919881307 700.9970326409496 329.7062314540061 769.3145400593471 448.519287833828 769.3145400593471C561.3916913946589 769.3145400593471 626.7388724035609 706.9376854599407 641.5905044510387 597.0356083086053H537.6290801186944C528.7181008902078 644.5608308605341 499.0148367952523 677.2344213649851 445.5489614243325 677.2344213649851C383.172106824926 677.2344213649851 350.4985163204749 635.6498516320474 350.4985163204749 534.6587537091988V460.4005934718101C350.4985163204749 359.4094955489615 383.1721068249259 317.8249258160237 445.5489614243324 317.8249258160237C504.9554896142434 317.8249258160237 531.6884272997032 356.4391691394659 537.6290801186944 418.8160237388724H448.519287833828V510.8961424332344H641.5905044510387V460.4005934718101H644.5608308605342zM1125.753709198813 671.293768545994H902.9792284866468V552.480712166172H1101.991097922849V460.4005934718101H902.979228486647V320.7952522255194H1125.753709198813V228.7151335311572H793.0771513353117V763.373887240356H1122.7833827893176V671.293768545994H1125.753709198813zM1657.4421364985162 231.6854599406528H1568.3323442136498L1360.4094955489613 558.4213649851631V231.6854599406528H1259.4183976261127V763.3738872403559H1348.5281899109793L1556.4510385756676 430.6973293768545V763.3738872403559H1657.4421364985162V231.6854599406528zM2177.2492581602373 671.293768545994H2031.703264094955V231.6854599406528H1924.7715133531156V671.293768545994H1779.225519287834V763.373887240356H2177.2492581602373V671.293768545994zM2477.2522255192875 225.7448071216617C2385.172106824926 225.7448071216617 2319.8249258160236 252.4777448071216 2272.2997032640947 311.8842729970326L2355.4688427299698 368.3204747774479C2385.1721068249253 332.6765578635014 2414.875370919881 314.854599406528 2471.3115727002964 314.854599406528C2533.6884272997027 314.854599406528 2554.480712166172 341.5875370919879 2554.480712166172 374.261127596439C2554.480712166172 409.9050445103856 2530.7181008902076 430.6973293768544 2447.548961424332 454.4599406528188C2343.587537091988 481.1928783382787 2290.1216617210684 531.6884272997031 2290.1216617210684 620.7982195845696C2290.1216617210684 703.9673590504449 2346.557863501484 769.3145400593469 2471.3115727002964 769.3145400593469C2554.480712166172 769.3145400593469 2619.8278931750738 739.6112759643914 2658.442136498516 683.175074183976L2578.243323442136 626.7388724035605C2554.480712166172 662.3827893175071 2527.7477744807115 680.2047477744804 2474.281899109792 680.2047477744804C2426.756676557863 680.2047477744804 2400.023738872403 656.442136498516 2400.023738872403 620.7982195845696C2400.023738872403 579.2136498516318 2432.697329376854 561.3916913946584 2503.9851632047476 543.5697329376852C2613.8872403560827 516.8367952522253 2664.382789317507 475.2522255192875 2664.382789317507 380.2017804154301C2658.442136498516 294.0623145400592 2599.035608308605 225.7448071216616 2477.2522255192875 225.7448071216616zM3130.7240356083084 671.293768545994H2907.949554896142V552.480712166172H3106.961424332344V460.40059347181H2907.949554896142V320.7952522255192H3130.7240356083084V228.7151335311571H2798.0474777448067V763.3738872403559H3127.7537091988124L3130.724035608308 671.2937685459939zM3819.839762611275 543.5697329376853C3748.551928783382 561.3916913946587 3715.878338278931 579.2136498516319 3715.878338278931 620.7982195845696C3715.878338278931 656.4421364985162 3742.611275964391 680.2047477744806 3790.13649851632 680.2047477744806C3843.60237388724 680.2047477744806 3870.335311572699 662.3827893175073 3894.097922848664 626.7388724035607L3974.296735905043 683.1750741839761C3935.682492581601 742.5816023738871 3873.305637982194 769.314540059347 3787.166172106824 769.314540059347C3662.412462908011 769.314540059347 3605.976261127595 703.9673590504449 3605.976261127595 620.7982195845696C3605.976261127595 534.6587537091987 3659.442136498515 484.1632047477743 3763.403560830859 454.4599406528189C3849.54302670623 430.6973293768545 3870.335311572699 412.8753709198812 3870.335311572699 374.2611275964391C3870.335311572699 341.587537091988 3849.54302670623 314.8545994065281 3787.166172106824 314.8545994065281C3733.700296735905 314.8545994065281 3701.026706231453 332.6765578635015 3671.3234421364978 368.320474777448L3588.154302670622 311.8842729970327C3635.67952522255 249.5074183976261 3701.026706231453 225.7448071216618 3793.106824925815 225.7448071216618C3917.860534124628 225.7448071216618 3977.267062314539 294.0623145400595 3977.267062314539 380.2017804154304C3980.237388724034 475.2522255192878 3932.7121661721058 516.8367952522254 3819.839762611274 543.5697329376854zM4122.813056379821 231.6854599406528H4452.519287833827V323.7655786350148H4229.74480712166V463.3709198813056H4428.756676557862V552.480712166172H4229.74480712166V671.293768545994H4452.519287833827V763.373887240356H4122.813056379821V231.6854599406528zM4696.086053412462 763.3738872403559H4589.154302670622V231.6854599406528H4918.860534124628V323.7655786350148H4696.086053412462V763.373887240356zM5034.703264094955 231.6854599406528H5367.379821958456V323.7655786350148H5144.60534124629V463.3709198813056H5343.6172106824915V552.480712166172H5144.60534124629V671.293768545994H5367.379821958456V763.373887240356H5034.703264094955V231.6854599406528zM5688.175074183976 680.2047477744806C5741.640949554896 680.2047477744806 5768.373887240355 650.5014836795251 5780.255192878338 600.0059347181007H5884.216617210682C5866.394658753708 715.8486646884271 5795.106824925815 772.2848664688426 5691.145400593471 772.2848664688426C5572.332344213649 772.2848664688426 5489.163204747773 700.9970326409493 5489.163204747773 537.6290801186942V463.3709198813054C5489.163204747773 300.0029673590504 5572.332344213649 228.7151335311571 5691.145400593471 228.7151335311571C5801.047477744806 228.7151335311571 5866.394658753708 282.181008902077 5884.216617210682 400.994065281899H5783.225519287833C5771.344213649851 347.5281899109791 5744.61127596439 320.7952522255192 5691.145400593471 320.7952522255192C5628.768545994065 320.7952522255192 5596.094955489613 365.3501483679525 5596.094955489613 463.3709198813056V537.6290801186942C5593.124629080118 638.6201780415429 5625.798219584569 680.2047477744807 5688.175074183976 680.2047477744807zM5961.445103857565 671.2937685459939H6106.991097922848V231.6854599406528H6213.922848664687V671.293768545994H6359.46884272997V763.373887240356H5961.445103857565V671.293768545994zM6487.192878338277 763.3738872403559H6594.124629080117V234.6557863501482H6487.192878338277V763.3738872403559zM6769.373887240355 231.6854599406528H7099.08011869436V323.7655786350148H6876.305637982194V463.3709198813056H7075.3175074183955V552.480712166172H6876.305637982194V671.293768545994H7099.08011869436V763.373887240356H6769.373887240355V231.6854599406528z" />
    <glyph glyph-name="ghent-initiatives-en"
      unicode="&#xE029;"
      horiz-adv-x="7915.919881305637" d="M2916.860534124629 0H7915.919881305636V1001H2.9703264094962V0H2916.8605341246293zM2916.860534124629 941.5934718100888H7856.513353115726V59.406528189911H2916.8605341246284V941.5934718100888zM644.5608308605341 460.4005934718101C644.5608308605341 297.0326409495549 570.3026706231454 225.7448071216618 448.519287833828 225.7448071216618C329.706231454006 225.7448071216618 246.5370919881307 297.0326409495549 246.5370919881307 460.4005934718101V528.7181008902078C246.5370919881307 700.9970326409496 329.7062314540061 769.3145400593471 448.519287833828 769.3145400593471C561.3916913946589 769.3145400593471 626.7388724035609 706.9376854599407 641.5905044510387 597.0356083086053H537.6290801186944C528.7181008902078 644.5608308605341 499.0148367952523 677.2344213649851 445.5489614243325 677.2344213649851C383.172106824926 677.2344213649851 350.4985163204749 635.6498516320474 350.4985163204749 534.6587537091988V460.4005934718101C350.4985163204749 359.4094955489615 383.1721068249259 317.8249258160237 445.5489614243324 317.8249258160237C504.9554896142434 317.8249258160237 531.6884272997032 356.4391691394659 537.6290801186944 418.8160237388724H448.519287833828V510.8961424332344H641.5905044510387V460.4005934718101H644.5608308605342zM1194.0712166172107 231.6854599406529H1087.139465875371V460.4005934718101H902.9792284866468V231.6854599406529H796.047477744807V763.373887240356H902.9792284866468V552.480712166172H1087.139465875371V763.373887240356H1194.0712166172107V231.6854599406529zM1690.1157270029673 671.293768545994H1467.341246290801V552.4807121661721H1666.3531157270031V460.4005934718101H1467.341246290801V320.7952522255194H1690.1157270029673V228.7151335311572H1357.4391691394658V763.373887240356H1687.1454005934718V671.293768545994H1690.1157270029673zM2221.8041543026707 231.6854599406529H2132.6943620178045L1924.7715133531156 558.4213649851632V231.6854599406529H1823.780415430267V763.373887240356H1912.8902077151336L2120.813056379822 430.6973293768546V763.373887240356H2221.8041543026707V231.6854599406529zM2741.6112759643916 671.293768545994H2596.06528189911V231.6854599406529H2489.13353115727V671.293768545994H2343.587537091988V763.373887240356H2741.6112759643916V671.293768545994zM3151.5163204747773 769.3145400593471H3258.448071216617V240.5964391691396H3151.5163204747773V769.3145400593472zM3727.759643916914 436.6379821958458L3522.8071216617204 769.3145400593472H3433.697329376854V237.626112759644H3534.6884272997027V567.3323442136499L3742.611275964391 237.626112759644H3831.7210682492578V769.3145400593472H3727.759643916914V436.6379821958458zM4004 769.3145400593472H4110.931750741839V240.5964391691396H4004V769.3145400593472zM4238.655786350148 677.2344213649851H4384.20178041543V237.6261127596439H4494.103857566765V677.2344213649851H4639.649851632047V769.3145400593471H4238.655786350148V677.2344213649851zM4764.40356083086 769.3145400593472H4871.3353115726995V240.5964391691396H4764.40356083086V769.3145400593472zM5174.308605341246 769.3145400593472L4990.148367952523 237.626112759644H5105.991097922849L5138.6646884273 338.6172106824927H5316.884272997033L5349.557863501484 237.626112759644H5465.400593471811L5281.240356083086 766.3442136498517H5174.308605341247V769.3145400593472zM5165.397626112759 430.6973293768546L5224.80415430267 617.8278931750742L5284.210682492581 430.6973293768546H5165.397626112759zM5498.07418397626 677.2344213649851H5643.620178041542V237.6261127596439H5750.551928783382V677.2344213649851H5899.068249258159V769.3145400593471H5498.07418397626V677.2344213649851zM6023.821958456972 769.3145400593471H6130.7537091988115V240.5964391691396H6023.821958456972V769.3145400593472zM6487.192878338277 412.8753709198812L6371.350148367951 769.3145400593471H6255.507418397624L6439.667655786348 237.6261127596439H6537.688427299701L6721.848664688425 769.3145400593471H6606.005934718099L6487.192878338276 412.8753709198812zM6837.691394658753 237.6261127596439H7167.397626112758V329.706231454006H6944.623145400592V466.3412462908012H7143.635014836794V558.4213649851632H6944.623145400592V677.2344213649851H7167.397626112758V769.3145400593472H6837.691394658753V237.626112759644zM7503.0445103857555 549.5103857566766C7431.756676557862 567.3323442136498 7399.0830860534115 585.1543026706231 7399.0830860534115 626.7388724035608C7399.0830860534115 662.3827893175073 7425.81602373887 686.1454005934718 7473.3412462908 686.1454005934718C7526.80712166172 686.1454005934718 7553.5400593471795 668.3234421364984 7577.302670623144 632.6795252225518L7657.501483679524 689.1157270029673C7618.887240356082 748.5222551928782 7556.5103857566755 775.2551928783382 7470.370919881306 775.2551928783382C7345.617210682492 775.2551928783382 7289.181008902076 709.9080118694361 7289.181008902076 626.7388724035608C7289.181008902076 540.5994065281899 7342.646884272996 490.1038575667656 7446.60830860534 460.4005934718101C7532.747774480712 436.6379821958457 7553.54005934718 418.8160237388725 7553.54005934718 380.2017804154304C7553.54005934718 347.5281899109792 7532.747774480712 320.7952522255194 7470.370919881306 320.7952522255194C7416.905044510386 320.7952522255194 7384.231454005932 338.6172106824927 7354.528189910978 374.2611275964392L7277.299703264094 317.8249258160238C7324.824925816022 255.4480712166172 7390.172106824924 231.685459940653 7482.252225519286 231.685459940653C7607.0059347181 231.685459940653 7666.412462908012 300.0029673590506 7666.412462908012 386.1424332344215C7663.4421364985155 478.2225519287836 7615.916913946588 519.8071216617211 7503.044510385756 549.5103857566767z" />
    <glyph glyph-name="ghent-initiatives-fr"
      unicode="&#xE02A;"
      horiz-adv-x="9769.403560830859" d="M2284.181008902077 424.7566765578636H2405.964391691394L2346.5578635014836 611.8872403560831L2284.181008902077 424.7566765578636zM5034.703264094955 1001H2.9703264094954V0H9766.433234421362V1001H5034.703264094953zM377.2314540059343 231.685459940653H270.2997032640946V763.3738872403561H377.2314540059343V231.685459940653zM950.5044510385752 231.685459940653H861.3946587537088L653.4718100890203 558.4213649851633V231.685459940653H552.4807121661718V763.3738872403561H641.5905044510382L849.5133531157267 430.6973293768547V763.3738872403561H950.5044510385752V231.685459940653zM1232.6854599406522 231.685459940653H1125.7537091988124V763.3738872403561H1232.6854599406522V231.685459940653zM1758.4332344213644 671.2937685459942H1612.8872403560827V231.685459940653H1505.9554896142429V671.2937685459942H1360.4094955489609V763.3738872403562H1758.4332344213644V671.2937685459942zM1993.0890207715129 231.685459940653H1886.157270029673V763.3738872403561H1993.0890207715129V231.685459940653zM2465.3709198813053 231.685459940653L2435.6676557863498 332.6765578635016H2257.448071216617L2224.774480712166 231.685459940653H2108.9317507418396L2293.0919881305635 763.3738872403561H2397.053412462908L2581.213649851632 234.6557863501485H2465.3709198813053V231.6854599406529zM3017.8516320474773 671.2937685459942H2872.305637982195V231.685459940653H2762.40356083086V671.2937685459942H2616.8575667655778V763.3738872403562H3014.8813056379813L3017.851632047477 671.2937685459942zM3249.5370919881298 231.685459940653H3142.60534124629V763.3738872403561H3249.5370919881298V231.685459940653zM3656.47181008902 231.685459940653H3558.451038575667L3374.290801186943 763.3738872403561H3493.103857566765L3608.946587537091 406.9347181008902L3724.789317507418 763.3738872403561H3843.60237388724L3656.471810089021 231.685459940653zM4286.181008902076 671.2937685459942H4063.40652818991V552.4807121661722H4262.418397626111V460.4005934718102H4063.40652818991V320.7952522255195H4286.181008902076V228.7151335311574H3956.47477744807V763.3738872403561H4286.181008902076V671.2937685459941zM4601.035608308604 225.7448071216619C4508.955489614243 225.7448071216619 4443.6083086053395 252.4777448071218 4396.0830860534115 311.8842729970328L4479.252225519287 368.3204747774481C4508.955489614243 332.6765578635016 4538.658753709198 314.8545994065282 4595.094955489613 314.8545994065282C4657.4718100890195 314.8545994065282 4678.264094955489 341.5875370919881 4678.264094955489 374.2611275964392C4678.264094955489 409.9050445103858 4654.501483679524 430.6973293768546 4571.33234421365 454.459940652819C4467.370919881305 481.1928783382789 4413.905044510385 531.6884272997032 4413.905044510385 620.7982195845698C4413.905044510385 703.9673590504451 4470.341246290801 769.3145400593471 4595.094955489613 769.3145400593471C4678.264094955489 769.3145400593471 4743.611275964391 739.6112759643917 4782.225519287833 683.1750741839762L4702.026706231454 626.7388724035608C4678.264094955489 662.3827893175073 4651.53115727003 680.2047477744807 4598.065281899109 680.2047477744807C4550.540059347181 680.2047477744807 4523.807121661721 656.4421364985162 4523.807121661721 620.7982195845698C4523.807121661721 579.213649851632 4556.4807121661715 561.3916913946587 4627.768545994065 543.5697329376854C4737.6706231454 516.8367952522256 4788.166172106825 475.2522255192878 4788.166172106825 380.2017804154304C4782.225519287834 294.0623145400595 4725.789317507419 225.7448071216618 4601.035608308605 225.7448071216618zM9709.997032640948 59.4065281899112H5034.703264094954V941.5934718100892H9707.02670623145L9709.997032640948 59.4065281899112zM5474.311572700296 231.685459940653C5593.124629080117 231.685459940653 5670.353115727002 302.9732937685463 5670.353115727002 466.3412462908015V513.8664688427302H5477.281899109791V421.7863501483683H5566.391691394658C5560.451038575667 359.4094955489617 5536.688427299702 320.7952522255197 5474.311572700296 320.7952522255197S5379.261127596438 362.3798219584573 5379.261127596438 463.370919881306V537.6290801186947C5379.261127596438 638.6201780415433 5411.934718100889 680.2047477744811 5474.311572700296 680.2047477744811C5527.777448071216 680.2047477744811 5557.4807121661715 647.53115727003 5566.391691394658 600.0059347181012H5670.353115727002C5655.5014836795235 706.937685459941 5587.183976261126 772.2848664688431 5477.281899109791 772.2848664688431C5358.468842729969 772.2848664688431 5275.299703264093 700.9970326409499 5275.299703264093 531.6884272997036V466.3412462908016C5272.329376854598 302.9732937685464 5355.498516320473 231.6854599406531 5474.311572700295 231.6854599406531zM5899.068249258159 338.6172106824929H6077.287833827892L6109.961424332343 237.6261127596443H6225.804154302669L6041.643916913946 766.3442136498519H5937.682492581602L5753.522255192878 237.6261127596443H5869.364985163204L5899.06824925816 338.6172106824929zM5988.178041543026 614.8575667655789L6047.584569732937 427.7270029673594H5928.771513353115L5988.178041543026 614.8575667655789zM6436.697329376853 567.3323442136501L6641.649851632046 237.6261127596443H6733.729970326408V769.3145400593473H6629.768545994064V436.637982195846L6421.845697329376 769.3145400593473H6332.735905044509V237.6261127596443H6436.697329376853V567.3323442136501zM6998.089020771512 237.6261127596443H7105.020771513352V677.2344213649855H7250.566765578634V769.3145400593475H6852.54302670623V677.2344213649855H6998.089020771512V237.6261127596443zM7553.5400593471795 231.6854599406531C7672.353115727002 231.6854599406531 7758.492581602372 302.9732937685464 7758.492581602372 466.3412462908015V540.5994065281902C7758.492581602372 703.9673590504453 7675.323442136498 775.2551928783386 7553.5400593471795 775.2551928783386C7434.727002967356 775.2551928783386 7351.557863501482 703.9673590504453 7351.557863501482 540.5994065281902V466.3412462908015C7348.5875370919875 302.9732937685464 7431.75667655786 231.6854599406531 7553.5400593471795 231.6854599406531zM7455.519287833826 540.5994065281902C7455.519287833826 641.5905044510389 7488.192878338276 683.1750741839764 7550.5697329376835 683.1750741839764S7645.62017804154 641.5905044510389 7645.62017804154 540.5994065281902V466.3412462908015C7645.62017804154 365.3501483679529 7612.94658753709 323.7655786350151 7550.569732937684 323.7655786350151S7455.519287833828 365.3501483679528 7455.519287833828 466.3412462908015V540.5994065281902zM7912.94955489614 769.3145400593475H8019.88130563798V240.5964391691398H7912.94955489614V769.3145400593476zM8364.439169139463 320.7952522255197C8310.973293768544 320.7952522255197 8278.299703264094 338.617210682493 8248.596439169138 374.2611275964396L8168.397626112758 317.8249258160241C8215.922848664688 255.4480712166176 8281.27002967359 231.6854599406533 8373.35014836795 231.6854599406533C8498.103857566764 231.6854599406533 8557.510385756674 300.0029673590509 8557.510385756674 386.1424332344218C8557.510385756674 481.1928783382793 8507.01483679525 522.7774480712171 8397.112759643916 549.5103857566769C8325.824925816023 567.3323442136502 8293.151335311572 585.1543026706236 8293.151335311572 626.7388724035612C8293.151335311572 662.3827893175078 8319.884272997031 686.1454005934722 8367.40949554896 686.1454005934722C8420.87537091988 686.1454005934722 8447.60830860534 668.3234421364989 8471.370919881305 632.6795252225522L8551.569732937684 689.1157270029678C8512.955489614242 748.5222551928787 8450.578635014836 775.2551928783387 8364.439169139463 775.2551928783387C8239.68545994065 775.2551928783387 8183.2492581602355 709.9080118694365 8183.2492581602355 626.7388724035612C8183.2492581602355 540.5994065281902 8236.715133531156 490.103857566766 8340.676557863499 460.4005934718105C8426.81602373887 436.6379821958461 8447.60830860534 418.8160237388729 8447.60830860534 380.2017804154307C8447.60830860534 347.5281899109797 8426.816023738871 320.7952522255197 8364.439169139463 320.7952522255197zM9026.821958456972 329.7062314540064H8804.047477744805V466.3412462908015H9003.059347181006V558.4213649851635H8804.047477744805V677.2344213649853H9026.821958456972V769.3145400593473H8694.14540059347V237.6261127596443H9026.821958456972V329.7062314540064zM9332.765578635013 320.7952522255197C9279.299703264092 320.7952522255197 9246.626112759643 338.617210682493 9216.922848664688 374.2611275964396L9133.753709198812 317.8249258160241C9181.278931750741 255.4480712166176 9246.626112759643 231.6854599406533 9338.706231454004 231.6854599406533C9463.459940652816 231.6854599406533 9522.866468842727 300.0029673590509 9522.866468842727 386.1424332344218C9522.866468842727 481.1928783382793 9472.370919881303 522.7774480712171 9362.46884272997 549.5103857566769C9291.181008902076 567.3323442136502 9258.507418397625 585.1543026706236 9258.507418397625 626.7388724035612C9258.507418397625 662.3827893175078 9285.240356083084 686.1454005934722 9332.765578635013 686.1454005934722C9386.231454005934 686.1454005934722 9412.964391691392 668.3234421364989 9436.727002967358 632.6795252225522L9516.925816023737 689.1157270029678C9478.311572700295 748.5222551928787 9415.934718100889 775.2551928783387 9329.795252225516 775.2551928783387C9205.041543026704 775.2551928783387 9148.605341246288 709.9080118694365 9148.605341246288 626.7388724035612C9148.605341246288 540.5994065281902 9202.071216617209 490.103857566766 9306.032640949552 460.4005934718105C9392.172106824923 436.6379821958461 9412.964391691392 418.8160237388729 9412.964391691392 380.2017804154307C9415.934718100889 347.5281899109797 9395.14243323442 320.7952522255197 9332.765578635013 320.7952522255197z" />
    <glyph glyph-name="ghent-initiatives-nl"
      unicode="&#xE02B;"
      horiz-adv-x="7381.261127596438" d="M2916.860534124629 0H7381.261127596438V1001H2.9703264094954V0H2916.8605341246284zM2916.860534124629 941.5934718100888H7321.854599406526V59.406528189911H2916.8605341246284V941.5934718100888zM644.5608308605341 460.4005934718101C644.5608308605341 297.0326409495549 570.3026706231454 225.7448071216618 448.519287833828 225.7448071216618C329.706231454006 225.7448071216618 246.5370919881307 297.0326409495549 246.5370919881307 460.4005934718101V528.7181008902078C246.5370919881307 700.9970326409496 329.7062314540061 769.3145400593471 448.519287833828 769.3145400593471C561.3916913946589 769.3145400593471 626.7388724035609 706.9376854599407 641.5905044510387 597.0356083086053H537.6290801186944C528.7181008902078 644.5608308605341 499.0148367952523 677.2344213649851 445.5489614243325 677.2344213649851C383.172106824926 677.2344213649851 350.4985163204749 635.6498516320474 350.4985163204749 534.6587537091988V460.4005934718101C350.4985163204749 359.4094955489615 383.1721068249259 317.8249258160237 445.5489614243324 317.8249258160237C504.9554896142434 317.8249258160237 531.6884272997032 356.4391691394659 537.6290801186944 418.8160237388724H448.519287833828V510.8961424332344H641.5905044510387V460.4005934718101H644.5608308605342zM1125.753709198813 671.293768545994H902.9792284866468V552.480712166172H1101.991097922849V460.4005934718101H902.979228486647V320.7952522255194H1125.753709198813V228.7151335311572H793.0771513353117V763.373887240356H1122.7833827893176V671.293768545994H1125.753709198813zM1657.4421364985162 231.6854599406528H1568.3323442136498L1360.4094955489613 558.4213649851631V231.6854599406528H1259.4183976261127V763.3738872403559H1348.5281899109793L1556.4510385756676 430.6973293768545V763.3738872403559H1657.4421364985162V231.6854599406528zM2177.2492581602373 671.293768545994H2031.703264094955V231.6854599406528H1924.7715133531156V671.293768545994H1779.225519287834V763.373887240356H2177.2492581602373V671.293768545994zM2477.2522255192875 225.7448071216617C2385.172106824926 225.7448071216617 2319.8249258160236 252.4777448071216 2272.2997032640947 311.8842729970326L2355.4688427299698 368.3204747774479C2385.1721068249253 332.6765578635014 2414.875370919881 314.854599406528 2471.3115727002964 314.854599406528C2533.6884272997027 314.854599406528 2554.480712166172 341.5875370919879 2554.480712166172 374.261127596439C2554.480712166172 409.9050445103856 2530.7181008902076 430.6973293768544 2447.548961424332 454.4599406528188C2343.587537091988 481.1928783382787 2290.1216617210684 531.6884272997031 2290.1216617210684 620.7982195845696C2290.1216617210684 703.9673590504449 2346.557863501484 769.3145400593469 2471.3115727002964 769.3145400593469C2554.480712166172 769.3145400593469 2619.8278931750738 739.6112759643914 2658.442136498516 683.175074183976L2578.243323442136 626.7388724035605C2554.480712166172 662.3827893175071 2527.7477744807115 680.2047477744804 2474.281899109792 680.2047477744804C2426.756676557863 680.2047477744804 2400.023738872403 656.442136498516 2400.023738872403 620.7982195845696C2400.023738872403 579.2136498516318 2432.697329376854 561.3916913946584 2503.9851632047476 543.5697329376852C2613.8872403560827 516.8367952522253 2664.382789317507 475.2522255192875 2664.382789317507 380.2017804154301C2658.442136498516 294.0623145400592 2599.035608308605 225.7448071216616 2477.2522255192875 225.7448071216616zM3151.5163204747773 769.3145400593471H3258.448071216617V240.5964391691395H3151.5163204747773V769.3145400593471zM3727.759643916914 436.6379821958457L3522.8071216617204 769.3145400593471H3433.697329376854V237.6261127596439H3534.6884272997027V567.3323442136498L3742.611275964391 237.6261127596439H3831.7210682492578V769.3145400593471H3727.759643916914V436.6379821958457zM4004 769.3145400593471H4110.931750741839V240.5964391691395H4004V769.3145400593471zM4238.655786350148 677.2344213649851H4384.20178041543V237.6261127596439H4494.103857566765V677.2344213649851H4639.649851632047V769.3145400593471H4238.655786350148V677.2344213649851zM4764.40356083086 769.3145400593471H4871.3353115726995V240.5964391691395H4764.40356083086V769.3145400593471zM5174.308605341246 769.3145400593471L4990.148367952523 237.6261127596439H5105.991097922849L5138.6646884273 338.6172106824926H5316.884272997033L5349.557863501484 237.6261127596439H5465.400593471811L5281.240356083086 766.3442136498516H5174.308605341247V769.3145400593471zM5165.397626112759 430.6973293768546L5224.80415430267 617.8278931750742L5284.210682492581 430.6973293768546H5165.397626112759zM5498.07418397626 677.2344213649851H5643.620178041542V237.6261127596439H5750.551928783382V677.2344213649851H5899.068249258159V769.3145400593471H5498.07418397626V677.2344213649851zM6023.821958456972 769.3145400593471H6130.7537091988115V240.5964391691396H6023.821958456972V769.3145400593472zM6306.002967359049 237.6261127596439H6635.709198813055V329.706231454006H6412.934718100889V466.3412462908012H6611.94658753709V558.4213649851632H6412.934718100889V677.2344213649851H6635.709198813055V769.3145400593472H6306.002967359049V237.626112759644zM6769.373887240355 237.6261127596439H6879.27596439169V454.459940652819H7078.287833827891V546.540059347181H6879.27596439169V677.2344213649851H7102.050445103856V769.3145400593471H6769.373887240355V237.6261127596439z" />
    <glyph glyph-name="googleplus"
      unicode="&#xE02C;"
      horiz-adv-x="1001" d="M738.4251875000001 607.732125C738.1749375 583.958375 737.9246875000001 560.0595000000001 737.7995625000001 536.28575C713.9006875000001 536.0355000000001 690.1582187500001 535.910375 666.38446875 535.81653125V464.589125C690.1582187500001 464.4952812500001 714.0258125 464.3701562499999 737.7995625000001 464.11990625C738.0498125 440.3461562499999 738.0498125 416.57240625 738.2687812500001 392.67353125C761.9486875000001 392.67353125 785.7224375000001 392.79865625 809.4961875000001 392.67353125C809.6213125000002 416.57240625 809.7464375000001 440.3461562500001 809.9654062500001 464.24503125L881.4117812500001 464.589125V535.78525C857.63803125 535.9103749999999 833.7391562500001 536.0355 809.9654062500001 536.25446875L809.4961875000001 607.70084375H738.4251875000001M94.00015625 500.1871874999999C91.84175 395.770375 163.75734375 296.13959375 262.6999375 263.6383749999999C355.8555 232.3571249999999 470.43871875 255.7555 532.43815625 335.58525C577.73340625 391.4848437499999 588.0249375000001 466.0280624999999 583.1137812500001 535.6601249999999C503.3153125000001 536.3795937499999 423.51684375 536.12934375 343.8122187500001 536.00421875C343.6870937500001 507.60084375 343.8122187500001 479.2600312499999 343.9373437500001 450.8566562499999C391.7350937500001 449.5115625 439.5328437500001 450.1371874999999 487.2993125 449.1674687499999C475.2247500000001 407.81365625 447.7598125000001 369.3690000000001 406.0619062500001 354.44784375C325.5439687500001 318.9436249999999 222.8163437500001 365.3024375 197.4785312500001 449.7618125C166.8854687500001 530.655125 216.9354687500001 628.252625 299.6118125000001 651.7761250000001C350.8505 669.82540625 403.68453125 649.5238750000001 447.5095625 622.87225A1131.755625 1131.755625 0 0 1 510.9479375 688.34390625C461.1481874999999 730.0418125000001 397.0841875 755.5985937500001 331.2684375 749.9679687500001C202.10815625 748.4351875000001 89.12028125 629.22234375 94.00015625 500.1871875000001" />
    <glyph glyph-name="hamburger"
      unicode="&#xE02D;"
      horiz-adv-x="1001" d="M200.2 700.7A50.05 50.05 0 1 0 200.2 800.8H800.8A50.05 50.05 0 1 0 800.8 700.7H200.2zM353.2529 450.45A50.05 50.05 0 1 0 353.2529 550.55H800.8A50.05 50.05 0 1 0 800.8 450.45H353.2529zM200.2 200.2000000000001A50.05 50.05 0 1 0 200.2 300.3000000000001H800.8A50.05 50.05 0 1 0 800.8 200.2000000000001H200.2z" />
    <glyph glyph-name="heart"
      unicode="&#xE02E;"
      horiz-adv-x="1001" d="M363.39428125 782.03125C317.66109375 782.03125 273.2104375000001 763.35634375 238.2692812500001 729.44746875C206.45625 699.323625 187.6875 650.74384375 187.6875 599.0985000000001V590.5274375C187.6875 537.4744375 218.218 479.5728437499999 278.4656875000001 418.418C335.1785937500001 361.83021875 415.289875 307.1193125000001 516.390875 256.0057500000001C665.19578125 332.3320000000001 743.39890625 400.8692187500001 782.9696875000001 445.28859375C824.10453125 493.27403125 844.3435000000001 539.413875 844.3435000000001 585.7726875V592.43559375C846.7208750000001 646.17678125 828.9218437500001 693.5365937500001 794.2935 727.9459687499999L788.88184375 734.45246875C784.31478125 741.02153125 776.93240625 745.9014062499999 763.1999375 754.6288749999999L757.882125 758.0072499999999C733.0760937499999 773.92940625 703.35890625 782.03125 669.63771875 782.03125C625.1245 782.03125 582.3317499999999 764.388625 549.14234375 732.26278125L515.7339687499999 700.0118125L483.107625 733.107375C464.4639999999999 752.00125 443.9435 762.51175 419.20003125 773.8981249999999C402.12046875 779.653875 385.79165625 782.03125 363.4255625 782.03125zM516.516 150.775625L490.6776875 163.9137500000001A661.2856250000001 661.2856250000001 0 0 1 483.357875 167.5423750000001C369.0561875 224.4742500000001 277.7149375 286.63009375 211.8991875 352.2894375C133.47709375 431.9002187499999 93.84375 511.9489375 93.84375 590.5274375V599.0985000000001C93.84375 677.1452187500001 122.8101875 749.3736250000001 173.298125 797.20265625C225.47525 847.81571875 293.1053125 875.875 363.39428125 875.875C397.0529062500001 875.875 424.4552812500001 871.52690625 452.23303125 861.76715625L456.20575 860.1405312500001C476.0067812500001 851.0689687500001 496.52728125 841.09025 516.7036875 826.98240625A264.32656249999997 264.32656249999997 0 0 0 669.6064375 875.875C721.5333125 875.875 768.3300624999999 862.7994375 808.58903125 836.9924062499999L813.59403125 833.80171875C829.8602812499998 823.447625 848.1910937499999 811.77971875 863.2686562499999 791.69715625C915.039125 738.6754375 941.59690625 667.3541875 938.15596875 590.33975V585.7726875C938.15596875 516.9852187500001 909.75259375 448.97978125 853.63403125 383.5706875C786.3793437500001 308.05775 684.1522187500001 235.51653125 549.1110625000001 167.3546875000001L516.516 150.775625z" />
    <glyph glyph-name="home"
      unicode="&#xE02F;"
      horiz-adv-x="1001" d="M569.5377187500001 387.8875C569.5377187500001 361.9240625 548.422875 340.7779374999999 522.42815625 340.7779374999999A47.172125 47.172125 0 0 0 522.42815625 435.0283437499999C548.39159375 435.0283437499999 569.5377187500001 413.8509374999999 569.5377187500001 387.91878125zM522.396875 246.96546875A141.10971874999998 141.10971874999998 0 0 1 663.3501875 387.9500625000001A141.07843749999998 141.07843749999998 0 0 1 522.396875 528.87209375A141.10971874999998 141.10971874999998 0 0 1 381.4435625 387.9500625000001A141.141 141.141 0 0 1 522.396875 246.9341875zM689.1885 153.3406875000001H355.60525L287.161875 558.3703125A47.985437499999996 47.985437499999996 0 0 1 283.4081250000001 569.944375L516.140625 794.919125L758.3513437500001 560.77896875C758.16365625 559.9656562499999 757.8195625000001 559.21490625 757.6944375 558.3390312500001L689.1885 153.2468437500001zM548.7356875 893.98684375A46.92187500000001 46.92187500000001 0 0 1 483.51428125 893.98684375L108.13928125 531.12434375A46.92187500000001 46.92187500000001 0 1 1 173.3606875 463.68196875L203.077875 492.4294375L269.644375 98.5359374999999A46.92187500000001 46.92187500000001 0 0 1 315.940625 59.4343749999999H728.8531249999999A46.92187500000001 46.92187500000001 0 0 1 775.1180937499998 98.5359374999999L839.9328437499998 481.9189375L858.9205624999998 463.6194062499999C867.9921249999998 454.829375 879.7851562499999 450.4499999999999 891.5156249999999 450.4499999999999A46.92187500000001 46.92187500000001 0 0 1 924.1419687499998 531.0930624999999L548.7669687499998 893.9555624999999z" />
    <glyph glyph-name="image"
      unicode="&#xE030;"
      horiz-adv-x="1001" d="M234.609375 844.59375H797.671875A140.765625 140.765625 0 0 0 938.4375 703.828125V265.890625A140.765625 140.765625 0 0 0 797.671875 125.125H234.609375A140.765625 140.765625 0 0 0 93.84375 265.890625V703.828125A140.765625 140.765625 0 0 0 234.609375 844.59375zM234.609375 750.75A46.92187500000001 46.92187500000001 0 0 1 187.6875 703.828125V265.890625A46.92187500000001 46.92187500000001 0 0 1 234.609375 218.96875H797.671875A46.92187500000001 46.92187500000001 0 0 1 844.59375 265.890625V703.828125A46.92187500000001 46.92187500000001 0 0 1 797.671875 750.75H234.609375zM315.15859375 340.2461562500002A31.28125 31.28125 0 0 0 286.44240625 383.9460625000001L381.005625 602.1640625A31.28125 31.28125 0 0 0 436.310875 606.19934375L546.671125 427.802375A31.218687499999998 31.218687499999998 0 0 1 587.1177812499999 416.2283124999999L669.4187499999999 456.8626562499999A31.28125 31.28125 0 0 0 710.8038437499999 443.6306874999999L741.615875 386.3234375A31.28125 31.28125 0 0 0 714.0883749999999 340.24615625H315.1273125zM615.2709062499999 637.1990625000001C625.5311562499999 647.2090625000001 637.7308437499998 652.2140625000002 651.8386874999999 652.2140625000002C666.4783124999999 652.2140625000002 678.7405624999999 647.2090625000001 688.8131249999999 637.1990625000001C698.8231249999999 627.1890625000001 703.8281249999999 614.8642500000001 703.8281249999999 600.2246250000001C703.8281249999999 586.1480625000002 698.8231249999999 573.948375 688.8131249999999 563.65684375A49.64334375 49.64334375 0 0 0 651.8386874999999 548.2351875C637.7308437499998 548.2351875 625.5311562499999 553.3653125000001 615.2396249999999 563.65684375A49.924875 49.924875 0 0 0 599.84925 600.2559062500001C599.84925 614.8642500000001 604.979375 627.15778125 615.2709062499999 637.1990625000001z" />
    <glyph glyph-name="in-ghents-en"
      unicode="&#xE031;"
      horiz-adv-x="7220.863501483678" d="M4645.590504451038 671.2937685459941H4580.243323442137V510.8961424332345H4645.590504451038C4719.848664688427 510.8961424332345 4752.522255192878 537.6290801186944 4752.522255192878 594.0652818991098C4752.522255192878 644.5608308605342 4719.848664688427 671.2937685459941 4645.590504451038 671.2937685459941zM5171.33827893175 680.2047477744808C5108.961424332344 680.2047477744808 5076.287833827892 638.6201780415431 5076.287833827892 537.6290801186944V463.3709198813058C5076.287833827892 362.3798219584571 5108.961424332344 320.7952522255195 5171.33827893175 320.7952522255195S5266.388724035607 362.379821958457 5266.388724035607 463.3709198813058V537.6290801186944C5269.359050445102 638.6201780415431 5233.715133531156 680.2047477744809 5171.33827893175 680.2047477744809zM3715.878338278931 1001H2.9703264094954V0H7220.863501483678V1001H3715.878338278931zM3656.47181008902 59.4065281899112H62.3768545994064V941.5934718100892H3656.47181008902V59.4065281899112zM4146.575667655786 225.744807121662C4054.495548961424 225.744807121662 3989.1483679525218 252.4777448071219 3941.623145400593 311.8842729970329L4024.792284866469 368.3204747774483C4054.495548961424 332.6765578635017 4084.198813056379 314.8545994065284 4140.635014836795 314.8545994065284C4203.011869436201 314.8545994065284 4223.80415430267 341.5875370919882 4223.80415430267 374.2611275964394C4223.80415430267 409.9050445103859 4200.041543026706 430.6973293768547 4116.872403560831 454.4599406528191C4012.910979228486 481.192878338279 3959.445103857566 531.6884272997033 3959.445103857566 620.7982195845698C3959.445103857566 703.9673590504451 4015.881305637982 769.3145400593472 4140.635014836795 769.3145400593472C4223.80415430267 769.3145400593472 4289.151335311572 739.6112759643918 4327.765578635015 683.1750741839763L4247.566765578636 626.7388724035609C4223.80415430267 662.3827893175074 4197.071216617212 680.2047477744808 4143.605341246292 680.2047477744808C4096.080118694363 680.2047477744808 4069.347181008902 656.4421364985164 4069.347181008902 620.7982195845698C4069.347181008902 579.2136498516321 4102.020771513353 561.3916913946589 4173.308605341246 543.5697329376856C4283.210682492581 516.8367952522257 4333.706231454006 475.2522255192879 4333.706231454006 380.2017804154304C4330.735905044511 294.0623145400596 4271.3293768546 225.7448071216619 4146.575667655787 225.7448071216619zM4660.4421364985155 418.8160237388727H4577.27299703264V231.685459940653H4470.341246290801V763.3738872403562H4660.4421364985155C4782.225519287833 763.3738872403562 4859.454005934717 706.9376854599408 4859.454005934717 594.06528189911S4785.195845697329 418.8160237388727 4660.4421364985155 418.8160237388727zM5376.290801186943 460.4005934718102C5376.290801186943 297.0326409495551 5293.1216617210675 225.744807121662 5171.33827893175 225.744807121662C5052.525222551928 225.744807121662 4969.356083086052 297.0326409495551 4969.356083086052 460.4005934718102V534.658753709199C4969.356083086052 698.0267062314542 5052.525222551928 769.3145400593473 5171.33827893175 769.3145400593473S5376.290801186943 698.0267062314542 5376.290801186943 534.658753709199V460.4005934718102zM5830.750741839763 231.685459940653L5694.115727002967 454.4599406528192L5631.738872403561 371.2908011869438V231.685459940653H5524.807121661721V763.3738872403562H5631.738872403561V534.658753709199L5798.077151335311 763.3738872403562H5925.80118694362L5762.433234421365 549.5103857566767L5955.504451038576 234.6557863501486L5830.750741839763 231.685459940653zM6409.964391691395 671.2937685459942H6187.189910979228V552.4807121661723H6386.201780415429V460.4005934718102H6187.189910979228V320.7952522255196H6409.964391691395V228.7151335311575H6080.258160237388V763.3738872403562H6409.964391691395V671.2937685459942zM6944.623145400593 231.685459940653H6855.513353115726L6647.590504451038 558.4213649851633V231.685459940653H6546.599406528189V763.3738872403562H6635.709198813056L6843.632047477744 430.6973293768548V763.3738872403562H6944.623145400593V231.685459940653zM656.4421364985169 463.3709198813059V531.6884272997036C656.4421364985169 700.9970326409498 573.2729970326416 763.3738872403562 451.4896142433241 763.3738872403562H264.3590504451045V234.6557863501487H451.4896142433241C570.302670623146 231.685459940653 656.4421364985169 294.0623145400597 656.4421364985169 463.3709198813059zM371.2908011869443 671.2937685459942H451.4896142433241C522.7774480712172 671.2937685459942 546.5400593471817 623.7685459940656 546.5400593471817 531.6884272997036V463.3709198813059C546.5400593471817 371.2908011869438 522.7774480712172 323.7655786350151 451.4896142433241 323.7655786350151H371.2908011869443V671.2937685459942zM810.8991097922856 763.3738872403562H917.8308605341253V234.6557863501486H810.8991097922856V763.3738872403562zM1185.1602373887247 332.6765578635018H1363.3798219584576L1396.0534124629087 231.6854599406531H1511.8961424332351L1324.7655786350156 763.3738872403563H1220.8041543026713L1036.6439169139474 234.6557863501487H1152.4866468842736L1185.1602373887247 332.6765578635018zM1274.2700296735911 611.8872403560833L1333.676557863502 424.7566765578638H1214.8635014836802L1274.2700296735911 611.8872403560833zM1948.5341246290805 323.7655786350153H1725.7596439169145V763.3738872403565H1618.8278931750747V231.6854599406533H1948.5341246290805V323.7655786350154zM2397.0534124629085 323.7655786350153H2174.2789317507422V463.370919881306H2373.290801186944V552.4807121661725H2174.2789317507422V671.2937685459945H2397.0534124629085V763.3738872403563H2067.3471810089027V231.6854599406531H2397.0534124629085V323.7655786350153zM2720.818991097923 225.7448071216621C2830.7210682492587 225.7448071216621 2896.068249258161 279.210682492582 2913.890207715134 398.0237388724039H2812.899109792285C2801.0178041543027 344.557863501484 2774.284866468843 317.8249258160241 2720.818991097923 317.8249258160241C2658.442136498517 317.8249258160241 2625.7685459940653 362.3798219584574 2625.7685459940653 460.4005934718105V534.6587537091992C2625.7685459940653 635.6498516320479 2658.4421364985164 677.2344213649856 2720.818991097923 677.2344213649856C2774.284866468843 677.2344213649856 2801.017804154303 647.53115727003 2812.899109792285 597.0356083086058H2916.8605341246293C2899.038575667656 712.8783382789322 2827.7507418397627 769.3145400593476 2723.7893175074187 769.3145400593476C2604.9762611275964 769.3145400593476 2521.8071216617213 698.0267062314545 2521.8071216617213 534.6587537091992V460.4005934718105C2515.8664688427302 297.0326409495554 2599.0356083086053 225.7448071216623 2720.818991097923 225.7448071216623zM3139.6350148367956 231.6854599406531H3246.566765578635V671.2937685459945H3392.112759643917V763.3738872403563H2994.0890207715133V671.2937685459945H3139.6350148367956V231.6854599406531z" />
    <glyph glyph-name="in-ghents-fr"
      unicode="&#xE032;"
      horiz-adv-x="4497.07418397626" d="M3243.596439169139 317.8249258160238C3305.9732937685453 317.8249258160238 3338.646884272997 359.4094955489615 3338.646884272997 460.4005934718102V534.6587537091989C3338.646884272997 635.6498516320476 3305.973293768546 677.2344213649852 3243.596439169139 677.2344213649852S3148.5459940652813 635.6498516320476 3148.5459940652813 534.6587537091989V460.4005934718102C3148.5459940652813 359.4094955489616 3181.2195845697324 317.8249258160238 3243.596439169139 317.8249258160238zM2272.2997032640947 611.8872403560831L2212.8931750741835 424.7566765578636H2331.706231454006L2272.2997032640947 611.8872403560831zM1348.528189910979 1001H2.9703264094956V0H4494.103857566764V1001H1348.5281899109784zM1348.528189910979 59.4065281899111H62.3768545994066V941.593471810089H1345.5578635014836L1348.5281899109793 59.4065281899111zM4030.732937685459 454.4599406528191C3926.771513353115 481.192878338279 3873.305637982194 531.6884272997033 3873.305637982194 620.7982195845698C3873.305637982194 703.9673590504451 3929.74183976261 769.3145400593472 4054.495548961423 769.3145400593472C4137.664688427299 769.3145400593472 4203.011869436201 739.6112759643918 4241.626112759643 683.1750741839763L4161.427299703263 626.7388724035609C4137.664688427299 662.3827893175074 4110.931750741839 680.2047477744808 4057.465875370919 680.2047477744808C4009.94065281899 680.2047477744808 3983.20771513353 656.4421364985164 3983.20771513353 620.7982195845698C3983.20771513353 579.2136498516321 4015.8813056379818 561.3916913946589 4087.169139465874 543.5697329376856C4197.07121661721 516.8367952522257 4247.566765578635 475.2522255192879 4247.566765578635 380.2017804154304C4247.566765578635 294.0623145400596 4188.1602373887235 225.7448071216619 4063.40652818991 225.7448071216619C3971.326409495549 225.7448071216619 3905.979228486646 252.4777448071218 3858.4540059347178 311.8842729970328L3941.623145400594 368.3204747774481C3971.326409495549 332.6765578635016 4001.029673590505 314.8545994065282 4057.46587537092 314.8545994065282C4119.842729970326 314.8545994065282 4140.635014836796 341.5875370919881 4140.635014836796 374.2611275964392C4137.6646884273005 412.8753709198814 4116.872403560831 433.6676557863502 4030.732937685461 454.459940652819zM3603.0059347181 763.3738872403562H3709.937685459939V234.6557863501486H3603.0059347181V763.3738872403562zM3041.6142433234413 534.6587537091989C3041.6142433234413 698.026706231454 3124.7833827893164 769.3145400593472 3243.596439169138 769.3145400593472S3448.5489614243315 698.026706231454 3448.5489614243315 534.6587537091989V460.4005934718102C3448.5489614243315 297.032640949555 3365.379821958456 225.7448071216618 3243.596439169138 225.7448071216618C3124.7833827893164 225.7448071216618 3041.6142433234413 297.0326409495549 3041.6142433234413 460.4005934718101V534.6587537091988zM2542.599406528189 763.3738872403561H2940.623145400593V671.2937685459941H2795.0771513353106V231.685459940653H2688.145400593471V671.2937685459942H2542.599406528189V763.3738872403562zM2218.833827893174 763.3738872403561H2322.795252225518L2506.955489614242 234.6557863501485H2391.112759643916L2358.439169139465 335.646884272997H2180.219584569732L2147.5459940652813 234.6557863501485H2031.7032640949549L2218.833827893174 763.3738872403561zM1615.8575667655778 763.3738872403561H1805.9584569732929C1927.7418397626104 763.3738872403561 2004.9703264094944 706.9376854599407 2004.9703264094944 594.0652818991098S1930.7121661721055 421.786350148368 1805.9584569732929 421.786350148368H1722.7893175074173V234.6557863501485H1615.8575667655775V763.3738872403561zM1895.0682492581593 594.0652818991098C1895.0682492581593 644.5608308605342 1862.394658753708 671.2937685459941 1788.1364985163195 671.2937685459941H1722.7893175074173V510.8961424332345H1788.1364985163195C1862.394658753708 510.8961424332345 1895.0682492581593 537.6290801186944 1895.0682492581593 594.0652818991098zM594.0652818991091 323.765578635015H371.290801186943V463.3709198813058H570.3026706231446V552.4807121661722H371.290801186943V671.2937685459942H594.0652818991091V763.3738872403562H264.3590504451032V231.685459940653H594.0652818991091V323.765578635015zM831.691394658753 561.3916913946589L1036.6439169139458 231.685459940653H1128.7240356083078V763.3738872403561H1024.7626112759635V430.6973293768547L816.8397626112752 763.3738872403561H727.7299703264088V231.685459940653H831.691394658753V561.3916913946589z" />
    </font>
</defs>
</svg>
